<?xml version="1.0" encoding="UTF-8"?>
<svg version="1.1" xmlns="http://www.w3.org/2000/svg" width="494" height="518">
<path d="M0 0 C1.60331898 0.01189499 3.20660075 0.02953435 4.80981445 0.05142212 C5.68307877 0.05942337 6.55634308 0.06742462 7.45606995 0.07566833 C10.36182183 0.10369042 13.26743027 0.1391331 16.1730957 0.17495728 C18.19034497 0.19672304 20.20759766 0.21817272 22.22485352 0.23931885 C26.46529466 0.28491995 30.70567457 0.33413748 34.94604492 0.38589478 C40.36512112 0.45178728 45.78424618 0.50921208 51.20344543 0.56392479 C55.37636276 0.60694078 59.54922182 0.65432788 63.72207642 0.703022 C65.71862354 0.72583641 67.71518592 0.74735508 69.71176147 0.76752853 C72.51665333 0.79656663 75.32141556 0.8314569 78.1262207 0.86782837 C78.94320938 0.87515488 79.76019806 0.88248138 80.60194397 0.89002991 C90.11021677 1.02757007 98.43057842 1.52758195 106.4855957 7.08901978 C108.1730957 9.77651978 108.1730957 9.77651978 109.4855957 13.08901978 C111.7955957 16.38901978 114.1055957 19.68901978 116.4855957 23.08901978 C121.9305957 40.41401978 121.9305957 40.41401978 127.4855957 58.08901978 C230.4455957 58.41901978 333.4055957 58.74901978 439.4855957 59.08901978 C439.8155957 58.42901978 440.1455957 57.76901978 440.4855957 57.08901978 C443.88902685 59.08413458 445.54258112 61.34625668 446.95678711 65.03018188 C448.97439616 72.88544371 446.9045441 81.20657103 445.3605957 88.96401978 C443.46504834 98.66493119 441.72399286 108.38198091 440.11962128 118.13549232 C439.74349754 120.42173343 439.36508915 122.70758718 438.98614502 124.99336243 C438.43749684 128.30298907 437.8894943 131.61272166 437.34185791 134.92251587 C435.12109774 148.33314762 432.87220622 161.73912309 430.6209774 175.14466858 C429.84121268 179.78843069 429.06309402 184.4324576 428.28833008 189.07705688 C427.51982326 193.68381862 426.74741883 198.28991118 425.97226715 202.89555931 C425.6822458 204.62280389 425.39359457 206.35027917 425.10640717 208.07799721 C424.70886751 210.4681392 424.30631739 212.85738737 423.90258789 215.24649048 C423.78829437 215.94087723 423.67400085 216.63526398 423.5562439 217.35069275 C422.46924651 223.72414327 421.26157381 229.73971746 417.4855957 235.08901978 C414.0786808 236.79247723 410.30292054 236.31564343 406.5480957 236.33901978 C405.3115625 236.36995728 405.3115625 236.36995728 404.05004883 236.40151978 C403.25663086 236.40667603 402.46321289 236.41183228 401.64575195 236.41714478 C400.92009033 236.42649048 400.19442871 236.43583618 399.44677734 236.44546509 C396.90325822 235.98317978 396.06051098 235.10467517 394.4855957 233.08901978 C391.10759116 222.95500613 394.91757078 210.8429647 396.7980957 200.65151978 C397.42248602 197.21591495 398.0425717 193.77954089 398.66137695 190.34292603 C398.8137381 189.49702911 398.96609924 188.6511322 399.12307739 187.77960205 C400.19867573 181.77404086 401.23574053 175.76323739 402.21606445 169.74136353 C402.34491531 168.97328873 402.47376617 168.20521393 402.60652161 167.41386414 C403.32543758 162.91042308 403.60787827 158.6495951 403.4855957 154.08901978 C402.8462207 155.18214478 402.2068457 156.27526978 401.5480957 157.40151978 C401.18844727 158.01640259 400.82879883 158.6312854 400.45825195 159.26480103 C399.34658323 161.22721533 399.34658323 161.22721533 398.4855957 164.08901978 C397.4955957 164.41901978 396.5055957 164.74901978 395.4855957 165.08901978 C393.97383191 166.72049202 393.97383191 166.72049202 392.55200195 168.78042603 C391.71052612 169.93961548 391.71052612 169.93961548 390.85205078 171.1222229 C390.25674561 171.95689087 389.66144043 172.79155884 389.0480957 173.65151978 C387.79346503 175.38240739 386.53824595 177.11286864 385.2824707 178.84292603 C384.65018555 179.7183606 384.01790039 180.59379517 383.36645508 181.49575806 C380.54482589 185.38611959 377.67762454 189.24140835 374.7980957 193.08901978 C374.30575439 193.752323 373.81341309 194.41562622 373.30615234 195.09902954 C371.1749178 197.94875835 369.04178342 200.6156779 366.4855957 203.08901978 C363.15226237 201.42235311 359.81892904 199.75568644 356.4855957 198.08901978 C356.8155957 197.09901978 357.1455957 196.10901978 357.4855957 195.08901978 C355.93661588 192.5160945 355.93661588 192.5160945 353.6730957 189.77651978 C352.83548437 188.70360567 351.99961457 187.62933021 351.1652832 186.55386353 C350.72539062 185.99038208 350.28549805 185.42690063 349.83227539 184.84634399 C347.57482123 181.90052183 345.44049547 178.86897348 343.2980957 175.83901978 C342.45999778 174.66292219 341.6214687 173.4871317 340.7824707 172.31167603 C339.39388722 170.36340839 338.00774032 168.41339651 336.6262207 166.46011353 C336.10543945 165.73952759 335.5846582 165.01894165 335.0480957 164.27651978 C334.61625977 163.67194946 334.18442383 163.06737915 333.73950195 162.44448853 C332.41965203 160.79944859 332.41965203 160.79944859 329.4855957 160.08901978 C329.1555957 183.51901978 328.8255957 206.94901978 328.4855957 231.08901978 C328.1555957 231.08901978 327.8255957 231.08901978 327.4855957 231.08901978 C327.4855957 205.67901978 327.4855957 180.26901978 327.4855957 154.08901978 C327.23593983 179.24956672 327.23593983 179.24956672 327.00756836 204.41030884 C326.953125 209.27993774 326.953125 209.27993774 326.92514038 211.56063843 C326.90747151 213.15126015 326.89365906 214.74192759 326.88290405 216.33261108 C326.86584689 218.74412296 326.83650101 221.15520592 326.80444336 223.56655884 C326.80227121 224.27353031 326.80009907 224.98050179 326.7978611 225.70889664 C326.73641474 229.30173804 326.56761964 232.0889412 324.4855957 235.08901978 C322.0328443 236.31539548 320.4350176 236.20317292 317.6965332 236.18667603 C316.75551758 236.18345337 315.81450195 236.18023071 314.8449707 236.1769104 C313.86012695 236.16853149 312.8752832 236.16015259 311.8605957 236.15151978 C310.86801758 236.14700806 309.87543945 236.14249634 308.8527832 236.1378479 C306.3969941 236.12604122 303.94132466 236.10957378 301.4855957 236.08901978 C297.91150802 229.92133554 296.89875974 225.43956759 296.93969727 218.36831665 C296.92935959 217.43080566 296.91902191 216.49329468 296.90837097 215.52737427 C296.87906729 212.45399486 296.87744642 209.38127758 296.8762207 206.30776978 C296.86123069 204.16684726 296.84450182 202.02593628 296.82611084 199.88504028 C296.78251761 194.26927137 296.76245591 188.65365845 296.74737549 183.03775024 C296.72432529 176.2894178 296.67190481 169.54125667 296.62443542 162.7930603 C296.55571465 152.55833551 296.52418953 142.32410217 296.4855957 132.08901978 C267.7755957 132.08901978 239.0655957 132.08901978 209.4855957 132.08901978 C209.4855957 133.73901978 209.4855957 135.38901978 209.4855957 137.08901978 C210.1455957 137.41901978 210.8055957 137.74901978 211.4855957 138.08901978 C212.1043457 138.72839478 212.7230957 139.36776978 213.3605957 140.02651978 C216.4084367 142.98471839 218.31066995 144.04208142 222.61450195 144.21401978 C223.74758789 144.17276978 224.88067383 144.13151978 226.0480957 144.08901978 C232.15297999 143.86727596 232.15297999 143.86727596 235.4855957 146.08901978 C235.4855957 146.41901978 235.4855957 146.74901978 235.4855957 147.08901978 C236.37762695 147.06581665 237.2696582 147.04261353 238.1887207 147.01870728 C239.35918945 147.0006604 240.5296582 146.98261353 241.7355957 146.96401978 C242.89575195 146.94081665 244.0559082 146.91761353 245.2512207 146.89370728 C249.71874926 147.16348557 251.81411814 148.64136807 255.4855957 151.08901978 C257.55867171 151.68576789 257.55867171 151.68576789 259.7980957 152.08901978 C269.90060517 154.21153398 269.90060517 154.21153398 272.4855957 158.08901978 C273.13399414 158.39194946 273.78239258 158.69487915 274.45043945 159.00698853 C277.06080975 160.39484375 277.71795803 161.78953326 279.0480957 164.40151978 C280.35108174 166.91156649 281.61578752 169.28671846 283.1730957 171.65151978 C286.34311815 177.53870432 286.850601 183.90460849 286.7980957 190.46401978 C286.79245605 191.2078894 286.78681641 191.95175903 286.78100586 192.71817017 C286.50807724 205.12561327 281.42554872 214.67870509 273.4855957 224.08901978 C273.1555957 224.74901978 272.8255957 225.40901978 272.4855957 226.08901978 C271.4955957 226.41901978 270.5055957 226.74901978 269.4855957 227.08901978 C269.0524707 227.54276978 268.6193457 227.99651978 268.1730957 228.46401978 C259.66575486 236.65627392 246.34447956 236.38031386 235.39554024 236.39398003 C233.01051415 236.39767785 230.62589136 236.41449588 228.24095154 236.43473816 C221.46539844 236.48982894 214.68978807 236.52079459 207.9140625 236.5453186 C203.75498435 236.56127148 199.59619627 236.59156497 195.43726921 236.63008308 C193.86219315 236.64165905 192.28706509 236.64766278 190.71194649 236.64776421 C182.44563884 236.64848971 175.24380329 236.86706297 167.4855957 240.08901978 C166.4130957 240.35714478 165.3405957 240.62526978 164.2355957 240.90151978 C159.87634528 242.78392337 157.82824485 246.17094957 155.1730957 249.96401978 C154.05365516 253.42410872 154.25139598 256.45892402 154.4855957 260.08901978 C156.94838371 262.55180778 159.19236552 263.08673233 162.4855957 264.08901978 C162.4855957 264.41901978 162.4855957 264.74901978 162.4855957 265.08901978 C175.53342326 266.13170491 188.51589046 266.22537613 201.59887695 266.20254517 C203.88692219 266.20226254 206.17496751 266.20242251 208.4630127 266.20298767 C214.62716595 266.20327268 220.79129945 266.19742406 226.95544815 266.19041371 C233.41495919 266.18413064 239.87447076 266.18357248 246.33398438 266.18238831 C257.16056701 266.17964083 267.98714161 266.17340945 278.8137207 266.16445923 C289.95694951 266.15525691 301.10017636 266.14818993 312.2434082 266.14395142 C313.2765773 266.14355733 313.2765773 266.14355733 314.3306185 266.14315528 C317.78659287 266.14185009 321.24256725 266.14058642 324.69854164 266.13934338 C353.29423117 266.12900457 381.88991315 266.11134081 410.4855957 266.08901978 C411.49431597 267.98277065 412.48903328 269.88398473 413.4777832 271.78823853 C414.03320801 272.84615601 414.58863281 273.90407349 415.16088867 274.99404907 C417.03430648 279.37099665 417.00674309 282.62812687 415.4855957 287.08901978 C414.31865326 289.60614356 413.01207293 291.75160151 411.4855957 294.08901978 C411.1555957 294.74901978 410.8255957 295.40901978 410.4855957 296.08901978 C393.6555957 296.08901978 376.8255957 296.08901978 359.4855957 296.08901978 C360.47081714 297.29430223 360.47081714 297.29430223 362.35218811 297.20927429 C363.16715256 297.20705368 363.982117 297.20483307 364.82177734 297.20254517 C365.7426564 297.20246964 366.66353546 297.2023941 367.61231995 297.20231628 C368.61335251 297.197155 369.61438507 297.19199371 370.64575195 297.18667603 C371.66535507 297.18526108 372.68495819 297.18384613 373.73545837 297.18238831 C377.00636678 297.17677074 380.27720783 297.16421528 383.5480957 297.15151978 C385.75968326 297.14650704 387.97127188 297.14194374 390.18286133 297.1378479 C395.61712927 297.12679561 401.05135768 297.11004041 406.4855957 297.08901978 C406.4855957 297.41901978 406.4855957 297.74901978 406.4855957 298.08901978 C385.2005957 298.58401978 385.2005957 298.58401978 363.4855957 299.08901978 C365.4655957 300.57401978 365.4655957 300.57401978 367.4855957 302.08901978 C368.1105957 304.02261353 368.1105957 304.02261353 368.4855957 306.08901978 C369.11711014 307.45993236 369.78494657 308.81461941 370.4855957 310.15151978 C374.84001827 318.49216007 374.68864405 329.02013895 372.87231445 338.18276978 C370.85170009 343.808445 367.43927484 347.83827621 363.2902832 352.08120728 C361.55102295 354.01622842 360.63312136 355.7838581 359.4855957 358.08901978 C357.4230957 358.71401978 357.4230957 358.71401978 355.4855957 359.08901978 C355.1555957 359.74901978 354.8255957 360.40901978 354.4855957 361.08901978 C352.5055957 361.08901978 350.5255957 361.08901978 348.4855957 361.08901978 C348.1555957 361.74901978 347.8255957 362.40901978 347.4855957 363.08901978 C339.35485641 365.79926621 330.25450183 364.34561275 322.4855957 361.08901978 C318.94892646 359.2738657 316.79532033 358.01819367 315.4855957 354.08901978 C313.47051212 353.35578181 313.47051212 353.35578181 311.4855957 353.08901978 C311.37086914 352.50894165 311.25614258 351.92886353 311.13793945 351.33120728 C310.43505578 348.9153077 309.45394607 347.29150785 308.0480957 345.21401978 C305.92824504 341.94234274 304.52645695 338.87396977 303.4855957 335.08901978 C302.8255957 335.08901978 302.1655957 335.08901978 301.4855957 335.08901978 C300.15302167 323.56737968 300.15302167 323.56737968 301.4855957 318.08901978 C302.1455957 318.08901978 302.8055957 318.08901978 303.4855957 318.08901978 C303.8568457 316.95464478 304.2280957 315.82026978 304.6105957 314.65151978 C306.2176594 310.31708355 308.53853371 306.74477495 311.1809082 302.97183228 C312.52712307 301.12417206 312.52712307 301.12417206 313.4855957 299.08901978 C266.9555957 298.59401978 266.9555957 298.59401978 219.4855957 298.08901978 C220.15254965 302.01778602 220.15254965 302.01778602 222.2980957 304.21401978 C228.25156573 312.03858038 230.22812427 321.44964888 229.4855957 331.08901978 C228.22439545 338.33843855 225.96149973 343.31745931 221.4855957 349.08901978 C221.34766602 349.74901978 221.20973633 350.40901978 221.06762695 351.08901978 C219.68276726 355.84773226 213.31509935 358.62641197 209.2355957 360.90151978 C206.95392797 361.88678539 204.90217254 362.57118188 202.4855957 363.08901978 C201.8255957 363.41901978 201.1655957 363.74901978 200.4855957 364.08901978 C198.17552826 364.21210887 195.86140935 364.26458317 193.5480957 364.27651978 C192.30157227 364.29069946 191.05504883 364.30487915 189.77075195 364.31948853 C186.4855957 364.08901978 186.4855957 364.08901978 183.4855957 362.08901978 C181.49836303 361.3852082 179.49781618 360.71783867 177.4855957 360.08901978 C174.4855957 359.08901978 174.4855957 359.08901978 173.4855957 358.08901978 C172.6812207 357.67651978 171.8768457 357.26401978 171.0480957 356.83901978 C167.9911455 354.75134646 167.78734795 353.46961592 166.4855957 350.08901978 C165.03605485 347.82411219 163.4876761 345.65442713 161.9230957 343.46792603 C157.21270133 335.67273534 157.28057955 325.91416225 158.4855957 317.08901978 C160.26036561 311.78150599 162.76717948 307.30913452 166.18481445 302.89370728 C167.68050269 301.18937808 167.68050269 301.18937808 167.4855957 299.08901978 C163.8555957 298.75901978 160.2255957 298.42901978 156.4855957 298.08901978 C156.4855957 297.75901978 156.4855957 297.42901978 156.4855957 297.08901978 C155.3718457 297.15089478 155.3718457 297.15089478 154.2355957 297.21401978 C151.36611527 297.08358885 149.87984423 296.62817954 147.4855957 295.08901978 C147.1555957 294.42901978 146.8255957 293.76901978 146.4855957 293.08901978 C145.6605957 292.92401978 144.8355957 292.75901978 143.9855957 292.58901978 C143.1605957 292.42401978 142.3355957 292.25901978 141.4855957 292.08901978 C141.1555957 291.42901978 140.8255957 290.76901978 140.4855957 290.08901978 C139.8462207 289.80026978 139.2068457 289.51151978 138.5480957 289.21401978 C135.9957251 287.82181763 135.75110139 286.65296252 134.4855957 284.08901978 C133.55791329 282.99965557 132.59776643 281.93728181 131.6105957 280.90151978 C125.12079667 273.5231419 123.08223972 264.83053365 123.2121582 255.19058228 C124.10082899 245.11051653 127.81217867 237.5246686 134.4855957 230.08901978 C136.60705724 227.45152705 138.6077072 224.90585253 140.4855957 222.08901978 C141.4755957 222.08901978 142.4655957 222.08901978 143.4855957 222.08901978 C142.33501015 216.69105988 141.06137812 211.37914645 139.4855957 206.08901978 C138.8255957 206.08901978 138.1655957 206.08901978 137.4855957 206.08901978 C137.10426272 204.09761418 136.77233988 202.096229 136.4855957 200.08901978 C136.8155957 199.75901978 137.1455957 199.42901978 137.4855957 199.08901978 C137.29624954 198.46278214 137.10690338 197.83654449 136.91181946 197.19132996 C134.91522176 190.58738874 132.91952455 183.98317586 130.92431641 177.3788147 C130.18267858 174.92431987 129.44082222 172.46989107 128.69873047 170.01553345 C124.57841155 156.38764114 120.46973849 142.75743289 116.4855957 129.08901978 C115.8255957 129.41901978 115.1655957 129.74901978 114.4855957 130.08901978 C114.55000854 128.34540161 114.55000854 128.34540161 114.61572266 126.56655884 C114.61084894 122.29013703 113.71612757 118.49984526 112.40356445 114.44839478 C112.18871902 113.75892761 111.9738736 113.06946045 111.7525177 112.35910034 C111.2998052 110.91545444 110.84153929 109.47353911 110.37792969 108.03335571 C109.67178514 105.83493966 108.98670782 103.63073613 108.30395508 101.42495728 C107.85922123 100.01571445 107.41329873 98.60684607 106.96606445 97.19839478 C106.76281052 96.54417542 106.55955658 95.88995605 106.35014343 95.21591187 C105.188525 91.64626412 103.82279245 89.00628987 101.4855957 86.08901978 C100.75654382 82.88119147 100.45089807 79.73047752 100.1340332 76.45620728 C99.54288675 71.76995012 98.2099912 67.43918964 96.7355957 62.96401978 C96.46900146 62.1415979 96.20240723 61.31917603 95.92773438 60.47183228 C95.12344557 58.00754685 94.30638118 55.54785352 93.4855957 53.08901978 C93.12812256 52.00475708 93.12812256 52.00475708 92.76342773 50.89859009 C90.47693208 42.68361666 90.47693208 42.68361666 85.4855957 36.08901978 C84.4955957 36.58401978 84.4955957 36.58401978 83.4855957 37.08901978 C83.4855957 36.42901978 83.4855957 35.76901978 83.4855957 35.08901978 C81.5055957 34.75901978 79.5255957 34.42901978 77.4855957 34.08901978 C77.4855957 33.75901978 77.4855957 33.42901978 77.4855957 33.08901978 C76.51728821 33.09790222 75.54898071 33.10678467 74.55133057 33.11593628 C65.42863316 33.19700182 56.30600877 33.25697533 47.18303299 33.29626846 C42.49271897 33.31714863 37.80269558 33.34547399 33.11254883 33.39077759 C28.58677054 33.43422022 24.0612719 33.45815365 19.53530121 33.46852875 C17.80808865 33.47592299 16.08089151 33.49036223 14.35379791 33.51194 C11.93547931 33.54095371 9.518318 33.54497675 7.09985352 33.54312134 C6.38487701 33.55750244 5.66990051 33.57188354 4.93325806 33.58670044 C1.56294571 33.55869784 -0.19342365 33.34037202 -2.88238525 31.23471069 C-8.43658174 23.93235169 -8.25812087 16.9653254 -7.5144043 8.08901978 C-6.25158158 3.19845179 -5.34348245 0.13535028 0 0 Z M101.4855957 80.08901978 C102.4855957 82.08901978 102.4855957 82.08901978 102.4855957 82.08901978 Z M102.4855957 82.08901978 C103.4855957 85.08901978 103.4855957 85.08901978 103.4855957 85.08901978 Z M136.4855957 89.08901978 C137.4855957 92.08901978 137.4855957 92.08901978 137.4855957 92.08901978 Z M138.4855957 89.08901978 C138.4855957 89.41901978 138.4855957 89.74901978 138.4855957 90.08901978 C228.5755957 90.08901978 318.6655957 90.08901978 411.4855957 90.08901978 C411.4855957 89.75901978 411.4855957 89.42901978 411.4855957 89.08901978 C321.3955957 89.08901978 231.3055957 89.08901978 138.4855957 89.08901978 Z M412.4855957 89.08901978 C413.4855957 91.08901978 413.4855957 91.08901978 413.4855957 91.08901978 Z M138.4855957 91.08901978 C137.35862383 95.59690726 138.08424984 98.23578386 139.3605957 102.52651978 C139.57820557 103.28497192 139.79581543 104.04342407 140.02001953 104.82485962 C142.66302922 113.91880032 145.51460103 122.95349264 148.36206055 131.98526001 C150.24907598 137.98840395 152.05644835 143.95973541 153.4855957 150.08901978 C154.4755957 149.59401978 154.4755957 149.59401978 155.4855957 149.08901978 C156.41983215 152.09933721 156.53009481 152.95552245 155.4855957 156.08901978 C156.06233327 158.59392124 156.71246886 160.98278588 157.4699707 163.43276978 C157.68623108 164.15710205 157.90249146 164.88143433 158.12530518 165.62771606 C158.82062306 167.95068013 159.52771187 170.26985749 160.2355957 172.58901978 C160.92495399 174.87463407 161.61186303 177.16097368 162.29846191 179.44741821 C162.7434884 180.92884433 163.18952136 182.4099685 163.63659668 183.89077759 C165.35476616 189.59664133 166.96793507 195.32630839 168.4855957 201.08901978 C169.4755957 201.08901978 170.4655957 201.08901978 171.4855957 201.08901978 C173.24149782 201.09979953 174.99739937 201.11069061 176.7532959 201.12234497 C185.16307025 201.1781146 193.57282648 201.21708976 201.9827404 201.24445629 C206.63791249 201.26012878 211.29292039 201.28141078 215.94799805 201.31533813 C220.45129128 201.34794591 224.95442635 201.36587435 229.45782852 201.3736515 C231.17303082 201.37918875 232.88822457 201.39000169 234.60335922 201.40620995 C237.00423664 201.42800607 239.40445939 201.43098597 241.80541992 201.42959595 C242.51208801 201.44038177 243.2187561 201.4511676 243.94683838 201.46228027 C248.36573271 201.43462039 250.83637124 200.49839469 254.4855957 198.08901978 C255.1455957 198.41901978 255.8055957 198.74901978 256.4855957 199.08901978 C259.10964183 195.15295059 258.84861877 191.66311038 258.4855957 187.08901978 C257.11053471 185.21011543 257.11053471 185.21011543 255.4855957 184.08901978 C255.4855957 183.42901978 255.4855957 182.76901978 255.4855957 182.08901978 C248.50591531 180.31752729 241.52346943 178.61389242 234.4855957 177.08901978 C234.4855957 176.42901978 234.4855957 175.76901978 234.4855957 175.08901978 C233.29015137 174.86967773 233.29015137 174.86967773 232.07055664 174.64590454 C228.45865991 173.98242511 224.84712532 173.31699452 221.2355957 172.65151978 C219.98133789 172.42142212 218.72708008 172.19132446 217.43481445 171.95425415 C216.22954102 171.73189087 215.02426758 171.50952759 213.7824707 171.28042603 C212.67226562 171.07619019 211.56206055 170.87195435 210.41821289 170.66152954 C206.20024223 169.83809121 202.45794908 168.74416701 198.4855957 167.08901978 C198.4855957 167.74901978 198.4855957 168.40901978 198.4855957 169.08901978 C197.02004254 168.35322765 195.56335083 167.59976852 194.1105957 166.83901978 C193.29848633 166.42136353 192.48637695 166.00370728 191.6496582 165.57339478 C189.2087391 163.89911813 188.64338057 162.75849754 187.4855957 160.08901978 C186.52948019 158.82130116 185.54899858 157.57168388 184.5480957 156.33901978 C179.0191041 149.00299189 177.13612728 141.28440762 177.4855957 132.08901978 C178.99117306 123.41313025 181.64857813 116.65761022 187.4855957 110.08901978 C188.25129883 109.03327759 188.25129883 109.03327759 189.0324707 107.95620728 C190.65854776 105.86678568 192.06392622 105.09108991 194.4855957 104.08901978 C194.4855957 103.42901978 194.4855957 102.76901978 194.4855957 102.08901978 C196.4655957 101.75901978 198.4455957 101.42901978 200.4855957 101.08901978 C200.4855957 100.42901978 200.4855957 99.76901978 200.4855957 99.08901978 C206.55332867 98.02668855 212.47048993 97.9410453 218.62158203 97.9437561 C219.7215451 97.94039749 220.82150818 97.93703888 221.95480347 97.93357849 C225.57575622 97.92411009 229.1966626 97.92212798 232.81762695 97.92105103 C235.33631916 97.9178375 237.85501119 97.91447335 240.373703 97.91096497 C245.64334412 97.90498538 250.91297349 97.90308115 256.18261719 97.90371704 C262.27723167 97.90431971 268.37175819 97.89372443 274.46635038 97.87797338 C280.3348545 97.86334675 286.20332357 97.85972815 292.0718441 97.86032677 C294.56821746 97.85914333 297.0645914 97.85470132 299.56095314 97.8469944 C303.03957194 97.83725372 306.51795993 97.84004815 309.99658203 97.84609985 C311.55425041 97.83767059 311.55425041 97.83767059 313.14338684 97.82907104 C314.08681946 97.83326553 315.03025208 97.83746002 316.00227356 97.84178162 C317.23582187 97.84096447 317.23582187 97.84096447 318.49429035 97.84013081 C320.4855957 98.08901978 320.4855957 98.08901978 322.4855957 100.08901978 C323.39858939 101.41064962 324.28744064 102.74905698 325.16137695 104.09683228 C328.5082373 109.17251419 332.0604749 114.07522236 335.6730957 118.96401978 C336.28862305 119.80448853 336.90415039 120.64495728 337.53833008 121.51089478 C338.43068359 122.72132446 338.43068359 122.72132446 339.34106445 123.95620728 C339.87368896 124.67921021 340.40631348 125.40221313 340.95507812 126.14712524 C342.42150557 128.08783072 342.42150557 128.08783072 344.05322266 129.64810181 C345.4855957 131.08901978 345.4855957 131.08901978 347.5480957 134.27651978 C348.1874707 135.20464478 348.8268457 136.13276978 349.4855957 137.08901978 C350.1455957 137.08901978 350.8055957 137.08901978 351.4855957 137.08901978 C351.8155957 138.40901978 352.1455957 139.72901978 352.4855957 141.08901978 C353.1455957 141.08901978 353.8055957 141.08901978 354.4855957 141.08901978 C354.5680957 141.64589478 354.6505957 142.20276978 354.7355957 142.77651978 C356.62274659 148.59523502 361.85127269 152.43034372 366.4855957 156.08901978 C375.78281937 146.29630457 375.78281937 146.29630457 380.9230957 134.27651978 C381.1087207 133.55464478 381.2943457 132.83276978 381.4855957 132.08901978 C383.9855957 130.96401978 383.9855957 130.96401978 386.4855957 130.08901978 C386.8155957 129.09901978 387.1455957 128.10901978 387.4855957 127.08901978 C389.13537177 125.40563197 390.80439499 123.74102453 392.4855957 122.08901978 C395.16898772 118.74847053 397.68175298 115.29007511 400.20483398 111.82730103 C401.55736224 109.99161648 402.93966196 108.18095629 404.32543945 106.37026978 C405.25447791 105.13117581 406.18287677 103.89160199 407.1105957 102.65151978 C407.56072021 102.07281128 408.01084473 101.49410278 408.47460938 100.89785767 C409.89620305 99.03785707 409.89620305 99.03785707 411.4855957 96.08901978 C411.1555957 94.43901978 410.8255957 92.78901978 410.4855957 91.08901978 C320.7255957 91.08901978 230.9655957 91.08901978 138.4855957 91.08901978 Z M411.4855957 91.08901978 C412.4855957 93.08901978 412.4855957 93.08901978 412.4855957 93.08901978 Z M207.4855957 98.08901978 C207.4855957 98.41901978 207.4855957 98.74901978 207.4855957 99.08901978 C244.4455957 99.08901978 281.4055957 99.08901978 319.4855957 99.08901978 C319.4855957 98.75901978 319.4855957 98.42901978 319.4855957 98.08901978 C282.5255957 98.08901978 245.5655957 98.08901978 207.4855957 98.08901978 Z M203.4855957 99.08901978 C207.4855957 100.08901978 207.4855957 100.08901978 207.4855957 100.08901978 Z M212.4855957 129.08901978 C212.4855957 129.41901978 212.4855957 129.74901978 212.4855957 130.08901978 C240.5355957 130.08901978 268.5855957 130.08901978 297.4855957 130.08901978 C297.4855957 129.75901978 297.4855957 129.42901978 297.4855957 129.08901978 C269.4355957 129.08901978 241.3855957 129.08901978 212.4855957 129.08901978 Z M208.4855957 130.08901978 C208.8155957 130.74901978 209.1455957 131.40901978 209.4855957 132.08901978 C210.1455957 131.42901978 210.8055957 130.76901978 211.4855957 130.08901978 C210.4955957 130.08901978 209.5055957 130.08901978 208.4855957 130.08901978 Z M206.4855957 134.08901978 C207.4855957 136.08901978 207.4855957 136.08901978 207.4855957 136.08901978 Z M207.4855957 136.08901978 C208.4855957 139.08901978 208.4855957 139.08901978 208.4855957 139.08901978 Z M226.4855957 145.08901978 C230.4855957 146.08901978 230.4855957 146.08901978 230.4855957 146.08901978 Z M243.4855957 148.08901978 C247.4855957 149.08901978 247.4855957 149.08901978 247.4855957 149.08901978 Z M154.4855957 150.08901978 C155.4855957 152.08901978 155.4855957 152.08901978 155.4855957 152.08901978 Z M404.4855957 151.08901978 C405.4855957 153.08901978 405.4855957 153.08901978 405.4855957 153.08901978 Z M243.4855957 178.08901978 C243.4855957 178.41901978 243.4855957 178.74901978 243.4855957 179.08901978 C245.1355957 179.08901978 246.7855957 179.08901978 248.4855957 179.08901978 C248.4855957 178.75901978 248.4855957 178.42901978 248.4855957 178.08901978 C246.8355957 178.08901978 245.1855957 178.08901978 243.4855957 178.08901978 Z M169.4855957 201.08901978 C170.4855957 203.08901978 170.4855957 203.08901978 170.4855957 203.08901978 Z M171.4855957 202.08901978 C171.4855957 202.41901978 171.4855957 202.74901978 171.4855957 203.08901978 C196.8955957 203.08901978 222.3055957 203.08901978 248.4855957 203.08901978 C248.4855957 202.75901978 248.4855957 202.42901978 248.4855957 202.08901978 C223.0755957 202.08901978 197.6655957 202.08901978 171.4855957 202.08901978 Z M248.4855957 233.08901978 C248.4855957 233.41901978 248.4855957 233.74901978 248.4855957 234.08901978 C250.1355957 234.08901978 251.7855957 234.08901978 253.4855957 234.08901978 C253.4855957 233.75901978 253.4855957 233.42901978 253.4855957 233.08901978 C251.8355957 233.08901978 250.1855957 233.08901978 248.4855957 233.08901978 Z M177.4855957 234.08901978 C177.4855957 234.41901978 177.4855957 234.74901978 177.4855957 235.08901978 C200.9155957 235.08901978 224.3455957 235.08901978 248.4855957 235.08901978 C248.4855957 234.75901978 248.4855957 234.42901978 248.4855957 234.08901978 C225.0555957 234.08901978 201.6255957 234.08901978 177.4855957 234.08901978 Z M302.4855957 234.08901978 C302.4855957 234.41901978 302.4855957 234.74901978 302.4855957 235.08901978 C309.0855957 235.08901978 315.6855957 235.08901978 322.4855957 235.08901978 C322.4855957 234.75901978 322.4855957 234.42901978 322.4855957 234.08901978 C315.8855957 234.08901978 309.2855957 234.08901978 302.4855957 234.08901978 Z M398.4855957 234.08901978 C398.4855957 234.41901978 398.4855957 234.74901978 398.4855957 235.08901978 C404.0955957 235.08901978 409.7055957 235.08901978 415.4855957 235.08901978 C415.4855957 234.75901978 415.4855957 234.42901978 415.4855957 234.08901978 C409.8755957 234.08901978 404.2655957 234.08901978 398.4855957 234.08901978 Z M213.4855957 296.08901978 C215.23451773 298.24651153 215.23451773 298.24651153 217.30904579 298.31949806 C218.42349351 298.30567117 218.42349351 298.30567117 219.56045532 298.29156494 C220.41303421 298.28590012 221.2656131 298.28023529 222.14402771 298.2743988 C223.08126175 298.25785751 224.01849579 298.24131622 224.98413086 298.22427368 C225.96953354 298.21481216 226.95493622 298.20535065 227.97019958 298.19560242 C231.23853747 298.16183161 234.50650322 298.11374171 237.7746582 298.06558228 C240.03623472 298.03942477 242.29782168 298.014157 244.55941772 297.98974609 C250.52064203 297.92300099 256.48164736 297.84412854 262.44268799 297.76278687 C268.52200902 297.68195855 274.60145878 297.61252137 280.6809082 297.54214478 C292.61595837 297.40229403 304.55080826 297.24963986 316.4855957 297.08901978 C316.4855957 296.75901978 316.4855957 296.42901978 316.4855957 296.08901978 C282.4955957 296.08901978 248.5055957 296.08901978 213.4855957 296.08901978 Z M189.4855957 317.08901978 C188.0005957 319.56401978 188.0005957 319.56401978 186.4855957 322.08901978 C185.8255957 321.75901978 185.1655957 321.42901978 184.4855957 321.08901978 C183.35542346 326.66541349 183.35542346 326.66541349 184.6730957 332.02651978 C186.74957448 334.38940942 187.39707019 334.83164265 190.4855957 335.08901978 C195.13192956 335.34245617 198.24671647 334.92853341 202.4855957 333.08901978 C202.39876811 330.9632407 202.2906006 328.83832397 202.1730957 326.71401978 C202.11508789 325.5306604 202.05708008 324.34730103 201.99731445 323.12808228 C201.82844727 322.12519165 201.65958008 321.12230103 201.4855957 320.08901978 C198.23633448 317.92284563 197.88707151 317.87566309 194.2980957 318.46401978 C192.4109082 318.77339478 192.4109082 318.77339478 190.4855957 319.08901978 C190.1555957 318.42901978 189.8255957 317.76901978 189.4855957 317.08901978 Z M191.4855957 317.08901978 C191.4855957 317.41901978 191.4855957 317.74901978 191.4855957 318.08901978 C193.4655957 318.08901978 195.4455957 318.08901978 197.4855957 318.08901978 C197.4855957 317.75901978 197.4855957 317.42901978 197.4855957 317.08901978 C195.5055957 317.08901978 193.5255957 317.08901978 191.4855957 317.08901978 Z M335.4855957 317.08901978 C335.4855957 317.41901978 335.4855957 317.74901978 335.4855957 318.08901978 C337.1355957 318.08901978 338.7855957 318.08901978 340.4855957 318.08901978 C340.4855957 317.75901978 340.4855957 317.42901978 340.4855957 317.08901978 C338.8355957 317.08901978 337.1855957 317.08901978 335.4855957 317.08901978 Z M337.9855957 318.52651978 C335.42542598 318.86360879 333.07659872 319.08901978 330.4855957 319.08901978 C328.42879568 322.17421981 328.19092757 323.00175481 328.1730957 326.52651978 C328.15633789 327.28835571 328.13958008 328.05019165 328.12231445 328.83511353 C328.58851274 331.72754809 329.38386386 333.05139305 331.4855957 335.08901978 C333.88730854 335.64654971 333.88730854 335.64654971 336.4855957 335.46401978 C337.7849707 335.44468384 337.7849707 335.44468384 339.1105957 335.42495728 C341.74796651 335.22661269 341.74796651 335.22661269 344.4855957 333.08901978 C344.4855957 332.42901978 344.4855957 331.76901978 344.4855957 331.08901978 C345.1455957 331.08901978 345.8055957 331.08901978 346.4855957 331.08901978 C346.8155957 331.74901978 347.1455957 332.40901978 347.4855957 333.08901978 C348.63203651 326.9929542 348.63203651 326.9929542 347.2355957 321.08901978 C344.39909814 317.84730827 341.98375007 317.98676894 337.9855957 318.52651978 Z M202.4855957 323.08901978 C202.4855957 325.72901978 202.4855957 328.36901978 202.4855957 331.08901978 C202.8155957 331.08901978 203.1455957 331.08901978 203.4855957 331.08901978 C203.4855957 328.44901978 203.4855957 325.80901978 203.4855957 323.08901978 C203.1555957 323.08901978 202.8255957 323.08901978 202.4855957 323.08901978 Z M192.4855957 336.08901978 C196.4855957 337.08901978 196.4855957 337.08901978 196.4855957 337.08901978 Z M328.4855957 361.08901978 C332.4855957 362.08901978 332.4855957 362.08901978 332.4855957 362.08901978 Z M187.4855957 362.08901978 C187.4855957 362.41901978 187.4855957 362.74901978 187.4855957 363.08901978 C191.4455957 363.08901978 195.4055957 363.08901978 199.4855957 363.08901978 C199.4855957 362.75901978 199.4855957 362.42901978 199.4855957 362.08901978 C195.5255957 362.08901978 191.5655957 362.08901978 187.4855957 362.08901978 Z M333.4855957 362.08901978 C333.4855957 362.41901978 333.4855957 362.74901978 333.4855957 363.08901978 C336.7855957 363.08901978 340.0855957 363.08901978 343.4855957 363.08901978 C343.4855957 362.75901978 343.4855957 362.42901978 343.4855957 362.08901978 C340.1855957 362.08901978 336.8855957 362.08901978 333.4855957 362.08901978 Z " fill="#C22B27" transform="translate(28.514404296875,128.91098022460938)"/>
<path d="M0 0 C91.08 0 182.16 0 276 0 C274.515 2.97 274.515 2.97 273 6 C272.67 5.34 272.34 4.68 272 4 C136.865 4.495 136.865 4.495 -1 5 C-0.67 3.35 -0.34 1.7 0 0 Z M0 2 C0 2.33 0 2.66 0 3 C90.09 3 180.18 3 273 3 C273 2.67 273 2.34 273 2 C182.91 2 92.82 2 0 2 Z " fill="#C3110E" transform="translate(167,216)"/>
<path d="M0 0 C0.33 0.66 0.66 1.32 1 2 C103.3 2 205.6 2 311 2 C311 2.33 311 2.66 311 3 C208.37 3 105.74 3 0 3 C0 2.01 0 1.02 0 0 Z " fill="#FE0100" transform="translate(156,184)"/>
<path d="M0 0 C0.99 0.495 0.99 0.495 2 1 C4.5622268 1.12226853 7.09908818 1.18565577 9.66259766 1.20532227 C10.84809456 1.22017166 10.84809456 1.22017166 12.05754089 1.23532104 C14.6763507 1.26697122 17.29517866 1.29170733 19.9140625 1.31640625 C21.72724892 1.33697274 23.54043052 1.35796913 25.35360718 1.37937927 C30.13098242 1.43463142 34.90840115 1.48402682 39.68585205 1.53222656 C44.55883668 1.58241866 49.43175798 1.63811667 54.3046875 1.69335938 C63.8697376 1.80097938 73.43484262 1.90241581 83 2 C79.28551395 4.40256784 75.65730653 4.2700101 71.38574219 4.22705078 C70.62437958 4.22734283 69.86301697 4.22763489 69.07858276 4.22793579 C66.56789664 4.22654506 64.05750914 4.21099604 61.546875 4.1953125 C59.80381431 4.19158146 58.06075152 4.18873491 56.31768799 4.18673706 C51.73423452 4.1791078 47.15090819 4.15946537 42.56750488 4.1373291 C37.88877075 4.11685546 33.21001604 4.10773209 28.53125 4.09765625 C19.35411087 4.07621882 10.17706601 4.04209138 1 4 C0.67 2.68 0.34 1.36 0 0 Z " fill="#BC1D18" transform="translate(196,331)"/>
<path d="M0 0 C1.63074781 0.0149657 3.26144842 0.03564821 4.89207458 0.06056213 C6.22365601 0.07497345 6.22365601 0.07497345 7.58213806 0.0896759 C10.53114957 0.12278979 13.48001859 0.1630746 16.42893982 0.2033844 C18.4677479 0.22767342 20.50656133 0.25151758 22.54537964 0.27493286 C27.92292855 0.33789501 33.30038335 0.40692707 38.67784119 0.47718811 C44.16058551 0.54776229 49.6433968 0.61264447 55.12620544 0.67799377 C65.89255506 0.80716237 76.65881389 0.94273816 87.42503357 1.08229065 C87.42503357 1.41229065 87.42503357 1.74229065 87.42503357 2.08229065 C86.31891724 2.0734082 85.2128009 2.06452576 84.07316589 2.05537415 C73.65543888 1.97433146 63.23777572 1.91434596 52.81980515 1.87504196 C47.46363449 1.85415611 42.10771806 1.82582001 36.75169373 1.78053284 C31.58401741 1.73711104 26.4165858 1.71316106 21.24874115 1.70278168 C19.27591854 1.69538374 17.30310952 1.68093745 15.33039093 1.65937042 C12.56965054 1.63038522 9.80992477 1.6263326 7.04905701 1.62818909 C6.23122238 1.61380798 5.41338776 1.59942688 4.57077026 1.58460999 C0.83566572 1.61183585 -1.14651016 1.74000148 -4.1139679 4.110672 C-4.59609741 4.76130615 -5.07822693 5.41194031 -5.57496643 6.08229065 C-4.5018729 0.10362672 -4.5018729 0.10362672 0 0 Z " fill="#C0302A" transform="translate(28.574966430664063,128.91770935058594)"/>
<path d="M0 0 C28.71 0 57.42 0 87 0 C87 0.33 87 0.66 87 1 C58.29 1 29.58 1 0 1 C0 0.67 0 0.34 0 0 Z " fill="#C23535" transform="translate(29,128)"/>
<path d="M0 0 C-0.33 0.66 -0.66 1.32 -1 2 C-3.33247761 2.33926947 -5.66585471 2.67240066 -8 3 C-8.66 3.66 -9.32 4.32 -10 5 C-13.15234375 5.265625 -13.15234375 5.265625 -16.9375 5.25 C-18.18402344 5.25515625 -19.43054688 5.2603125 -20.71484375 5.265625 C-24 5 -24 5 -27 3 C-23.67784598 -0.32215402 -19.15154272 -0.11628402 -14.625 -0.75 C-13.6659375 -0.90082031 -12.706875 -1.05164063 -11.71875 -1.20703125 C-10.79320312 -1.33980469 -9.86765625 -1.47257812 -8.9140625 -1.609375 C-7.6448999 -1.7945166 -7.6448999 -1.7945166 -6.35009766 -1.98339844 C-3.67953535 -2.00226383 -2.26130998 -1.36839583 0 0 Z M-23 3 C-23 3.33 -23 3.66 -23 4 C-19.04 4 -15.08 4 -11 4 C-11 3.67 -11 3.34 -11 3 C-14.96 3 -18.92 3 -23 3 Z " fill="#C9372F" transform="translate(239,488)"/>
<path d="M0 0 C2 3 2 3 2 5 C2.66 5 3.32 5 4 5 C5.17816469 8.72563248 6.34048913 12.45602389 7.5 16.1875 C7.83386719 17.24259766 8.16773438 18.29769531 8.51171875 19.38476562 C8.82753906 20.40634766 9.14335937 21.42792969 9.46875 22.48046875 C9.76201172 23.41785889 10.05527344 24.35524902 10.35742188 25.32104492 C10.99696517 27.98734758 11.12123109 30.27013569 11 33 C10.34 33 9.68 33 9 33 C8.80664062 32.44570312 8.61328125 31.89140625 8.4140625 31.3203125 C8.15367187 30.59585938 7.89328125 29.87140625 7.625 29.125 C7.36976563 28.40570313 7.11453125 27.68640625 6.8515625 26.9453125 C6.06122217 24.81842006 6.06122217 24.81842006 4 23 C3.43069702 20.34325278 3.07449019 17.70489794 2.7890625 15.00390625 C2.3484104 10.98485517 1.54718473 7.71324334 0 4 C0 2.68 0 1.36 0 0 Z M4 17 C5 19 5 19 5 19 Z M5 19 C6 22 6 22 6 22 Z " fill="#B93230" transform="translate(126,192)"/>
<path d="M0 0 C1.06087326 0.00015106 2.12174652 0.00030212 3.21476746 0.00045776 C4.3585939 0.01078033 5.50242035 0.02110291 6.6809082 0.03173828 C7.85305374 0.03456818 9.02519928 0.03739807 10.23286438 0.04031372 C13.98257588 0.05152325 17.73204994 0.0766295 21.48168945 0.10205078 C24.02139955 0.11207957 26.56111338 0.12120559 29.10083008 0.12939453 C35.3320311 0.15146512 41.56309332 0.18495039 47.79418945 0.22705078 C44.5937347 2.36068729 43.80789509 2.47377306 40.13916016 2.45410156 C38.72803703 2.45387497 38.72803703 2.45387497 37.28840637 2.4536438 C36.2758226 2.44332123 35.26323883 2.43299866 34.2199707 2.42236328 C32.6615168 2.41811844 32.6615168 2.41811844 31.07157898 2.41378784 C27.74983248 2.4025836 24.4283546 2.37747842 21.10668945 2.35205078 C18.8560423 2.3420213 16.60539093 2.3328954 14.35473633 2.32470703 C8.83446223 2.30264348 3.31434503 2.2691635 -2.20581055 2.22705078 C-2.53581055 2.88705078 -2.86581055 3.54705078 -3.20581055 4.22705078 C-5.68081055 3.23705078 -5.68081055 3.23705078 -8.20581055 2.22705078 C-4.88005533 0.00988064 -3.86974815 -0.0183836 0 0 Z " fill="#CC4A43" transform="translate(390.205810546875,422.77294921875)"/>
<path d="M0 0 C0.33 0 0.66 0 1 0 C1.94870788 6.85988773 1.94870788 13.14011227 1 20 C1.66 20 2.32 20 3 20 C3.66 21.98 4.32 23.96 5 26 C4.34 26.66 3.68 27.32 3 28 C0.31176516 22.03913143 -1.14358041 17.11462433 -1.125 10.5 C-1.12757813 9.5821875 -1.13015625 8.664375 -1.1328125 7.71875 C-1.00244035 5.04995546 -0.59378606 2.60134847 0 0 Z " fill="#C94A41" transform="translate(153,376)"/>
<path d="M0 0 C1.65 0 3.3 0 5 0 C5 0.66 5 1.32 5 2 C10.61 2 16.22 2 22 2 C21.67 2.99 21.34 3.98 21 5 C18.06195004 5.08086376 15.12611925 5.1404283 12.1875 5.1875 C10.93743164 5.22520508 10.93743164 5.22520508 9.66210938 5.26367188 C8.45844727 5.27817383 8.45844727 5.27817383 7.23046875 5.29296875 C6.12288208 5.31653442 6.12288208 5.31653442 4.99291992 5.34057617 C2.44272515 4.9047656 1.55824151 4.02623737 0 2 C0 1.34 0 0.68 0 0 Z " fill="#C84F43" transform="translate(423,360)"/>
<path d="M0 0 C0.66 0 1.32 0 2 0 C2.31085091 6.68329447 1.69367076 13.52420002 0 20 C-0.99 20.66 -1.98 21.32 -3 22 C-2.51172287 14.52165033 -1.66594452 7.31074682 0 0 Z " fill="#C6322E" transform="translate(429,309)"/>
<path d="M0 0 C-0.33 0.99 -0.66 1.98 -1 3 C-4.19156448 4.06385483 -6.58497476 4.16677982 -9.9375 4.1875 C-11.49791016 4.20876953 -11.49791016 4.20876953 -13.08984375 4.23046875 C-15.95046613 4.00392282 -17.57670151 3.47733619 -20 2 C-17.60629375 1.46706163 -15.21091562 0.9484183 -12.8125 0.4375 C-12.13896484 0.28603516 -11.46542969 0.13457031 -10.77148438 -0.02148438 C-6.86746475 -0.8403763 -3.84812264 -1.1282845 0 0 Z M-15 2 C-15 2.33 -15 2.66 -15 3 C-11.7 3 -8.4 3 -5 3 C-5 2.67 -5 2.34 -5 2 C-8.3 2 -11.6 2 -15 2 Z " fill="#C64536" transform="translate(377,489)"/>
<path d="M0 0 C0 0.66 0 1.32 0 2 C-5.60337282 3.73897777 -8.44577269 4.3451182 -14 2 C-15.66088045 1.63893903 -17.32618981 1.29537827 -19 1 C-19 0.67 -19 0.34 -19 0 C-12.06918811 -1.88101367 -6.88131426 -2.16079916 0 0 Z " fill="#B93430" transform="translate(277,305)"/>
<path d="M0 0 C0.70189453 0.14759766 1.40378906 0.29519531 2.12695312 0.44726562 C3.85694194 0.8120932 5.58492963 1.18638689 7.3125 1.5625 C7.6425 2.5525 7.9725 3.5425 8.3125 4.5625 C5.70783457 4.25377671 3.10382309 3.94068277 0.5 3.625 C-0.23798828 3.53798828 -0.97597656 3.45097656 -1.73632812 3.36132812 C-4.85483121 2.98033454 -7.69858122 2.55880626 -10.6875 1.5625 C-10.6875 0.9025 -10.6875 0.2425 -10.6875 -0.4375 C-6.81351645 -1.72882785 -3.86761214 -0.84863572 0 0 Z " fill="#CB3D37" transform="translate(240.6875,297.4375)"/>
<path d="M0 0 C2.5663404 3.84951059 2.3822621 7.09358822 2.375 11.5625 C2.37628906 12.36864746 2.37757813 13.17479492 2.37890625 14.00537109 C2.26755046 20.29823877 1.1175674 25.46075078 -2 31 C-2.33 31 -2.66 31 -3 31 C-2 22.42857143 -2 22.42857143 -1 19 C-0.34 19 0.32 19 1 19 C0.67 12.73 0.34 6.46 0 0 Z " fill="#C9433C" transform="translate(400,443)"/>
<path d="M0 0 C1.32 0.33 2.64 0.66 4 1 C4.72264239 3.62181825 5.42849092 6.24623992 6.125 8.875 C6.33253906 9.62136719 6.54007812 10.36773437 6.75390625 11.13671875 C7.25897366 13.06990779 7.63855219 15.03488717 8 17 C7.34 17.66 6.68 18.32 6 19 C4.02 12.73 2.04 6.46 0 0 Z " fill="#C73933" transform="translate(119,172)"/>
<path d="M0 0 C2.09721098 3.14581646 3.05667086 5.8408918 4.1875 9.4375 C4.55230469 10.57058594 4.91710937 11.70367187 5.29296875 12.87109375 C5.96248932 15.8339997 6.07236414 17.22004965 5 20 C5 19.34 5 18.68 5 18 C4.34 18 3.68 18 3 18 C0.86380263 11.79485526 -0.36517527 6.57315478 0 0 Z " fill="#C63630" transform="translate(185,289)"/>
<path d="M0 0 C2.11816354 3.88894826 2.45458227 6.52994104 2 11 C0.8716905 13.53231453 -0.48362088 15.656505 -2 18 C-2.33 18.66 -2.66 19.32 -3 20 C-3.66 19.67 -4.32 19.34 -5 19 C-4.53691969 16.49936635 -3.98324901 14.97626943 -2.5 12.875 C-0.339148 8.733367 -0.2596775 4.61151425 0 0 Z " fill="#B8221D" transform="translate(442,405)"/>
<path d="M0 0 C1.81455688 0.07069702 1.81455688 0.07069702 3.66577148 0.14282227 C5.62353516 0.21533203 5.62353516 0.21533203 7.62084961 0.28930664 C9.00952598 0.34583683 10.39819781 0.40247892 11.78686523 0.45922852 C13.17942544 0.51243399 14.5720035 0.56517448 15.96459961 0.61743164 C19.38472504 0.74760943 22.80459448 0.88259032 26.22436523 1.02172852 C26.22436523 1.35172852 26.22436523 1.68172852 26.22436523 2.02172852 C25.42740234 2.00078125 24.63043945 1.97983398 23.80932617 1.95825195 C20.19780089 1.87509529 16.586477 1.82306818 12.97436523 1.77172852 C11.72010742 1.73821289 10.46584961 1.70469727 9.17358398 1.67016602 C7.96831055 1.65727539 6.76303711 1.64438477 5.52124023 1.63110352 C4.41103516 1.61015625 3.30083008 1.58920898 2.15698242 1.56762695 C-1.4008281 2.11853667 -2.542652 3.27563482 -4.77563477 6.02172852 C-3.70001051 0.02896481 -3.70001051 0.02896481 0 0 Z " fill="#C02D27" transform="translate(27.775634765625,128.978271484375)"/>
<path d="M0 0 C0 0.99 0 1.98 0 3 C-3.96 3 -7.92 3 -12 3 C-12 2.34 -12 1.68 -12 1 C-12.99 0.67 -13.98 0.34 -15 0 C-9.96266834 -1.5111995 -5.11828973 -0.64599773 0 0 Z M-9 0 C-5 1 -5 1 -5 1 Z " fill="#C63931" transform="translate(281,277)"/>
<path d="M0 0 C0.33 0.66 0.66 1.32 1 2 C-1 4 -1 4 -3.1640625 4.1953125 C-4.38222656 4.16050781 -4.38222656 4.16050781 -5.625 4.125 C-6.44226563 4.10695313 -7.25953125 4.08890625 -8.1015625 4.0703125 C-8.72804688 4.04710937 -9.35453125 4.02390625 -10 4 C-10 2.68 -10 1.36 -10 0 C-6.26840331 -1.24386556 -3.81984796 -0.77811718 0 0 Z M-8 2 C-8 2.33 -8 2.66 -8 3 C-6.35 3 -4.7 3 -3 3 C-3 2.67 -3 2.34 -3 2 C-4.65 2 -6.3 2 -8 2 Z " fill="#B51D19" transform="translate(372,444)"/>
<path d="M0 0 C0.66 0 1.32 0 2 0 C3.2039337 3.75399798 3.09877617 7.33217412 3.0625 11.25 C3.05347656 12.51328125 3.04445313 13.7765625 3.03515625 15.078125 C3.02355469 16.04234375 3.01195312 17.0065625 3 18 C2.67 18 2.34 18 2 18 C0.77100654 11.93184478 -0.27560214 6.20104812 0 0 Z " fill="#C1211D" transform="translate(312,307)"/>
<path d="M0 0 C0.66 0 1.32 0 2 0 C2.05395478 1.62463842 2.09277195 3.24978541 2.125 4.875 C2.14820313 5.77992188 2.17140625 6.68484375 2.1953125 7.6171875 C2 10 2 10 0 12 C-1 11 -1 11 -1.1328125 8.75 C-1.13023437 7.8425 -1.12765625 6.935 -1.125 6 C-1.12757813 5.0925 -1.13015625 4.185 -1.1328125 3.25 C-1 1 -1 1 0 0 Z " fill="#C9423A" transform="translate(256,450)"/>
<path d="M0 0 C1 3 1 3 0.109375 5.15625 C-0.33921875 5.9296875 -0.7878125 6.703125 -1.25 7.5 C-1.68828125 8.2734375 -2.1265625 9.046875 -2.578125 9.84375 C-3.89686958 11.84360442 -5.24105852 13.38591252 -7 15 C-6.39301257 10.87248551 -4.96189209 7.6678852 -3 4 C-2.34 4 -1.68 4 -1 4 C-0.67 2.68 -0.34 1.36 0 0 Z " fill="#C53B33" transform="translate(312,333)"/>
<path d="M0 0 C0.67844036 2.11070334 1.11681652 3.54107796 0.5625 5.71875 C-0.17783021 8.72120031 -0.3466927 11.66703855 -0.5625 14.75 C-0.64628906 15.92046875 -0.73007813 17.0909375 -0.81640625 18.296875 C-0.87699219 19.18890625 -0.93757812 20.0809375 -1 21 C-1.33 21 -1.66 21 -2 21 C-2.05390357 18.06225537 -2.0936255 15.12549768 -2.125 12.1875 C-2.14175781 11.35412109 -2.15851563 10.52074219 -2.17578125 9.66210938 C-2.18222656 8.85966797 -2.18867188 8.05722656 -2.1953125 7.23046875 C-2.20578613 6.49207764 -2.21625977 5.75368652 -2.22705078 4.99291992 C-2 3 -2 3 0 0 Z " fill="#C41C18" transform="translate(209,250)"/>
<path d="M0 0 C2.57781906 2.57781906 2.62129616 4.4401839 3 8 C2.67 8.33 2.34 8.66 2 9 C1.63837971 10.32594105 1.30271961 11.65938457 1 13 C1 12.01 1 11.02 1 10 C0.34 10 -0.32 10 -1 10 C-2.46726798 6.18510326 -1.43336419 3.70988378 0 0 Z M0 3 C1 5 1 5 1 5 Z " fill="#B82E2B" transform="translate(183,276)"/>
<path d="M0 0 C3.09423168 3.09423168 3.93706005 6.5523812 4.125 10.875 C4.08375 11.57625 4.0425 12.2775 4 13 C3.34 13 2.68 13 2 13 C0.24252386 8.49646738 -0.19294408 4.82360189 0 0 Z " fill="#C5342F" transform="translate(133,212)"/>
<path d="M0 0 C2.64 0.33 5.28 0.66 8 1 C8 1.99 8 2.98 8 4 C5.69 4.33 3.38 4.66 1 5 C0.67 3.35 0.34 1.7 0 0 Z " fill="#BD312D" transform="translate(27,157)"/>
<path d="M0 0 C0.66 0.99 1.32 1.98 2 3 C1.34 3 0.68 3 0 3 C-0.66 4.32 -1.32 5.64 -2 7 C-4.64 6.34 -7.28 5.68 -10 5 C-10 4.67 -10 4.34 -10 4 C-9.04287109 3.81824219 -9.04287109 3.81824219 -8.06640625 3.6328125 C-7.24011719 3.46523438 -6.41382813 3.29765625 -5.5625 3.125 C-4.73878906 2.96257812 -3.91507813 2.80015625 -3.06640625 2.6328125 C-2.38449219 2.42398437 -1.70257813 2.21515625 -1 2 C-0.67 1.34 -0.34 0.68 0 0 Z " fill="#D24945" transform="translate(231,460)"/>
<path d="M0 0 C0.33 0 0.66 0 1 0 C0.85764543 1.72945653 0.71095618 3.45855654 0.5625 5.1875 C0.48128906 6.15042969 0.40007812 7.11335938 0.31640625 8.10546875 C0.02333849 10.78649602 -0.42703754 13.3662986 -1 16 C-1.33 16 -1.66 16 -2 16 C-2.76173392 11.6835078 -3.16063604 8.25566547 -2 4 C-1.34 4 -0.68 4 0 4 C0 2.68 0 1.36 0 0 Z " fill="#C64740" transform="translate(466,253)"/>
<path d="M0 0 C1.98 0 3.96 0 6 0 C6.33 0.99 6.66 1.98 7 3 C8.49985609 4.66710346 8.49985609 4.66710346 10 6 C9.01 6.495 9.01 6.495 8 7 C8 6.34 8 5.68 8 5 C7.05125 4.9175 6.1025 4.835 5.125 4.75 C2 4 2 4 0.625 1.9375 C0.41875 1.298125 0.2125 0.65875 0 0 Z " fill="#A41D1A" transform="translate(104,159)"/>
<path d="M0 0 C2.97 0 5.94 0 9 0 C9 0.66 9 1.32 9 2 C6.18230651 4.17364926 4.7809319 5.08677021 1.1875 4.6875 C0.465625 4.460625 -0.25625 4.23375 -1 4 C-0.67 2.68 -0.34 1.36 0 0 Z " fill="#D4362D" transform="translate(362,463)"/>
<path d="M0 0 C0.66 0.33 1.32 0.66 2 1 C1.1875 2.9375 1.1875 2.9375 0 5 C-0.99 5.33 -1.98 5.66 -3 6 C-3.33 6.66 -3.66 7.32 -4 8 C-4 4 -4 4 -2 1.75 C-1.01 0.88375 -1.01 0.88375 0 0 Z " fill="#C6342D" transform="translate(344,427)"/>
<path d="M0 0 C0.33 0 0.66 0 1 0 C1 6.93 1 13.86 1 21 C-1.07536949 16.84926101 -1.24452615 15.02061859 -1.1875 10.5 C-1.18105469 9.3759375 -1.17460937 8.251875 -1.16796875 7.09375 C-1.0295553 4.54436746 -0.74334614 2.4262818 0 0 Z " fill="#CC4D40" transform="translate(151,376)"/>
<path d="M0 0 C2.475 0.495 2.475 0.495 5 1 C5 1.66 5 2.32 5 3 C5.99 3.33 6.98 3.66 8 4 C7.67 4.66 7.34 5.32 7 6 C4.0625 5.25 4.0625 5.25 1 4 C0.125 1.875 0.125 1.875 0 0 Z " fill="#B74440" transform="translate(220,292)"/>
<path d="M0 0 C0.78375 0.04125 1.5675 0.0825 2.375 0.125 C1.055 0.455 -0.265 0.785 -1.625 1.125 C-1.36938677 3.4681213 -1.03229228 5.80343403 -0.625 8.125 C0.035 8.455 0.695 8.785 1.375 9.125 C0.385 9.455 -0.605 9.785 -1.625 10.125 C-2.615 7.485 -3.605 4.845 -4.625 2.125 C-2.625 0.125 -2.625 0.125 0 0 Z " fill="#AA3936" transform="translate(238.625,257.875)"/>
<path d="M0 0 C1.9375 0.8125 1.9375 0.8125 4 2 C4.33 2.99 4.66 3.98 5 5 C4.34 5.66 3.68 6.32 3 7 C1.68 5.68 0.36 4.36 -1 3 C-0.67 2.01 -0.34 1.02 0 0 Z " fill="#B8312D" transform="translate(198,480)"/>
<path d="M0 0 C0.99 0.495 0.99 0.495 2 1 C2.8125 4.3125 2.8125 4.3125 3 8 C2.01 9.32 1.02 10.64 0 12 C0 8.04 0 4.08 0 0 Z " fill="#C01D19" transform="translate(377,450)"/>
<path d="M0 0 C0.33 1.32 0.66 2.64 1 4 C1.66 4 2.32 4 3 4 C3.66 5.98 4.32 7.96 5 10 C4.34 10.66 3.68 11.32 3 12 C-0.42857143 4.71428571 -0.42857143 4.71428571 0 0 Z " fill="#C44039" transform="translate(153,392)"/>
<path d="M0 0 C2.42130331 2.42130331 2.52840504 3.80111377 3.125 7.125 C3.29257813 8.03507812 3.46015625 8.94515625 3.6328125 9.8828125 C3.81457031 10.93082031 3.81457031 10.93082031 4 12 C3.67 11.34 3.34 10.68 3 10 C2.34 10 1.68 10 1 10 C-0.1577506 6.52674819 -0.06866652 3.63932552 0 0 Z " fill="#C1221E" transform="translate(165,318)"/>
<path d="M0 0 C2.06723714 3.10085571 2.24497423 3.72931681 2.1953125 7.23046875 C2.18886719 8.03291016 2.18242187 8.83535156 2.17578125 9.66210938 C2.15902344 10.49548828 2.14226562 11.32886719 2.125 12.1875 C2.11597656 13.03248047 2.10695313 13.87746094 2.09765625 14.74804688 C2.07410703 16.83215243 2.03823647 18.91611217 2 21 C1.67 21 1.34 21 1 21 C0.67 14.07 0.34 7.14 0 0 Z " fill="#AD2320" transform="translate(315,307)"/>
<path d="M0 0 C-0.66 1.32 -1.32 2.64 -2 4 C-5.3 3.67 -8.6 3.34 -12 3 C-12 2.67 -12 2.34 -12 2 C-10.37548581 1.66430703 -8.75037083 1.3315204 -7.125 1 C-6.22007812 0.814375 -5.31515625 0.62875 -4.3828125 0.4375 C-2 0 -2 0 0 0 Z " fill="#D13C38" transform="translate(270,303)"/>
<path d="M0 0 C0.66 0.33 1.32 0.66 2 1 C2.28926947 3.02488628 2.57272154 5.05244016 2.75390625 7.08984375 C2.90406878 9.08252033 2.90406878 9.08252033 4 11 C2.68 10.67 1.36 10.34 0 10 C-1.2380014 6.42355152 -0.74926071 3.66305234 0 0 Z " fill="#C73933" transform="translate(211,452)"/>
<path d="M0 0 C0.99 0.33 1.98 0.66 3 1 C4.1875 4.0625 4.1875 4.0625 5 7 C4.01 7.495 4.01 7.495 3 8 C2.34 7.01 1.68 6.02 1 5 C0.01 4.34 -0.98 3.68 -2 3 C-1.34 2.01 -0.68 1.02 0 0 Z " fill="#B4201B" transform="translate(437,395)"/>
<path d="M0 0 C0.99 0 1.98 0 3 0 C3 1.32 3 2.64 3 4 C1.02 4.66 -0.96 5.32 -3 6 C-3 5.01 -3 4.02 -3 3 C-2.34 3 -1.68 3 -1 3 C-0.67 2.01 -0.34 1.02 0 0 Z " fill="#C75047" transform="translate(290,356)"/>
<path d="M0 0 C0.66 0.99 1.32 1.98 2 3 C2.99 3.66 3.98 4.32 5 5 C4.67 5.66 4.34 6.32 4 7 C2.68 7 1.36 7 0 7 C-0.38133299 5.0085944 -0.71325582 3.00720923 -1 1 C-0.67 0.67 -0.34 0.34 0 0 Z " fill="#C94238" transform="translate(388,277)"/>
<path d="M0 0 C1.875 0.1875 1.875 0.1875 4 1 C5.25 3.5625 5.25 3.5625 6 6 C5.34 6 4.68 6 4 6 C3.67 5.34 3.34 4.68 3 4 C0.47266765 3.34444881 0.47266765 3.34444881 -2 3 C-1.34 2.01 -0.68 1.02 0 0 Z " fill="#BF4F4B" transform="translate(172,418)"/>
<path d="M0 0 C0.33 0 0.66 0 1 0 C1.268125 1.134375 1.53625 2.26875 1.8125 3.4375 C2.204375 4.613125 2.59625 5.78875 3 7 C3.99 7.33 4.98 7.66 6 8 C5.34 8.66 4.68 9.32 4 10 C2.0625 9.1875 2.0625 9.1875 0 8 C-1.09658936 4.71023192 -0.79953138 3.28696233 0 0 Z " fill="#CB413A" transform="translate(181,384)"/>
<path d="M0 0 C2.88437779 1.29299694 4.87219421 2.65941363 7 5 C5.02 5.99 5.02 5.99 3 7 C0 2.25 0 2.25 0 0 Z " fill="#C9392C" transform="translate(215,287)"/>
<path d="M0 0 C0.99 0 1.98 0 3 0 C2.67 1.65 2.34 3.3 2 5 C-0.97 4.505 -0.97 4.505 -4 4 C-3.01 3.67 -2.02 3.34 -1 3 C-0.67 2.01 -0.34 1.02 0 0 Z " fill="#B94139" transform="translate(381,485)"/>
<path d="M0 0 C2.4375 0.8125 2.4375 0.8125 5 2 C5.33 2.99 5.66 3.98 6 5 C4.02 5 2.04 5 0 5 C-0.5625 3.0625 -0.5625 3.0625 -1 1 C-0.67 0.67 -0.34 0.34 0 0 Z " fill="#BB3B2F" transform="translate(204,484)"/>
<path d="M0 0 C0.33 0 0.66 0 1 0 C1.36923077 7.50769231 1.36923077 7.50769231 -0.5 10 C-0.995 10.33 -1.49 10.66 -2 11 C-1.125 3.375 -1.125 3.375 0 0 Z " fill="#CA4139" transform="translate(334,440)"/>
<path d="M0 0 C0.33 0.99 0.66 1.98 1 3 C0.67 3.66 0.34 4.32 0 5 C-1.65 5 -3.3 5 -5 5 C-5 4.01 -5 3.02 -5 2 C-3.35 1.34 -1.7 0.68 0 0 Z " fill="#B9302D" transform="translate(415,258)"/>
<path d="M0 0 C1.65 0.33 3.3 0.66 5 1 C3.37660195 2.70884005 1.70680947 4.37446717 0 6 C-0.66 6 -1.32 6 -2 6 C-1.34 4.02 -0.68 2.04 0 0 Z " fill="#BE2115" transform="translate(219,233)"/>
<path d="M0 0 C0.33 0 0.66 0 1 0 C1 5.94 1 11.88 1 18 C0.67 18 0.34 18 0 18 C0 12.06 0 6.12 0 0 Z " fill="#D60000" transform="translate(185,446)"/>
<path d="M0 0 C0.33 0.66 0.66 1.32 1 2 C1.66 2 2.32 2 3 2 C2.67 3.65 2.34 5.3 2 7 C1.01 7 0.02 7 -1 7 C-1.33 5.02 -1.66 3.04 -2 1 C-1.34 0.67 -0.68 0.34 0 0 Z " fill="#AF3E36" transform="translate(167,328)"/>
<path d="M0 0 C0.66 0 1.32 0 2 0 C2 2.31 2 4.62 2 7 C1.34 7 0.68 7 0 7 C-0.33 7.66 -0.66 8.32 -1 9 C-0.67 6.03 -0.34 3.06 0 0 Z " fill="#C83B35" transform="translate(429,309)"/>
<path d="M0 0 C-0.33 2.64 -0.66 5.28 -1 8 C-1.66 8 -2.32 8 -3 8 C-3.33 5.69 -3.66 3.38 -4 1 C-2 0 -2 0 0 0 Z " fill="#C73932" transform="translate(458,308)"/>
<path d="M0 0 C10.55808656 0.96355353 10.55808656 0.96355353 15 2 C15 2.33 15 2.66 15 3 C10.05 2.67 5.1 2.34 0 2 C0 1.34 0 0.68 0 0 Z " fill="#8B1F1A" transform="translate(241,302)"/>
<path d="M0 0 C2.29633824 3.44450737 2.54016485 5.93812283 3 10 C2.67 9.34 2.34 8.68 2 8 C1.34 8 0.68 8 0 8 C-0.98120464 4.94736336 -0.98120464 3.05263664 0 0 Z " fill="#CD4C45" transform="translate(167,228)"/>
<path d="M0 0 C-1.39332574 3.36720387 -2.9789286 4.9859524 -6 7 C-5.37162381 3.35541809 -4.14650034 0 0 0 Z " fill="#C3211C" transform="translate(199,430)"/>
<path d="M0 0 C1.67542976 0.28604898 3.34385343 0.61781233 5 1 C4.67 1.66 4.34 2.32 4 3 C3.01 3.33 2.02 3.66 1 4 C0.34 4.66 -0.32 5.32 -1 6 C-1.042721 4.33388095 -1.04063832 2.66617115 -1 1 C-0.67 0.67 -0.34 0.34 0 0 Z " fill="#C3422F" transform="translate(297,352)"/>
<path d="M0 0 C0.33 0 0.66 0 1 0 C2.23076923 6.4 2.23076923 6.4 1.0625 9.4375 C0.711875 9.953125 0.36125 10.46875 0 11 C-0.84098656 6.98195309 -1.05404945 3.98196457 0 0 Z " fill="#C7352D" transform="translate(425,333)"/>
<path d="M0 0 C1.875 0.625 1.875 0.625 4 2 C5.25 5.125 5.25 5.125 6 8 C5.01 8 4.02 8 3 8 C2.690625 7.05125 2.38125 6.1025 2.0625 5.125 C1.12605258 2.13919592 1.12605258 2.13919592 0 0 Z " fill="#D9352E" transform="translate(301,287)"/>
<path d="M0 0 C2 3 2 3 2 5 C2.66 5 3.32 5 4 5 C4 6.65 4 8.3 4 10 C1.2027092 7.93243723 0.97307727 6.85559629 0.3125 3.3125 C0.209375 2.219375 0.10625 1.12625 0 0 Z " fill="#C84540" transform="translate(126,192)"/>
<path d="M0 0 C-0.33 1.32 -0.66 2.64 -1 4 C-2.98 3.01 -4.96 2.02 -7 1 C-3.375 -1.125 -3.375 -1.125 0 0 Z " fill="#C41B17" transform="translate(129,134)"/>
<path d="M0 0 C2.00720923 0.28674418 4.0085944 0.61866701 6 1 C5.4225 1.0825 4.845 1.165 4.25 1.25 C1.3840696 2.20531013 0.0009236 3.78469173 -2 6 C-1.125 1.125 -1.125 1.125 0 0 Z " fill="#CB534D" transform="translate(25,129)"/>
<path d="M0 0 C0.33 0 0.66 0 1 0 C1.05429959 1.74965358 1.09292823 3.49979787 1.125 5.25 C1.14820313 6.22453125 1.17140625 7.1990625 1.1953125 8.203125 C1 11 1 11 -1 15 C-0.67 10.05 -0.34 5.1 0 0 Z " fill="#D73F3F" transform="translate(259,450)"/>
<path d="M0 0 C0.33 0 0.66 0 1 0 C1 4.95 1 9.9 1 15 C0.67 15 0.34 15 0 15 C0 10.05 0 5.1 0 0 Z " fill="#C12A27" transform="translate(19,137)"/>
<path d="M0 0 C1.231394 3.69418201 0.64432764 6.2056261 0 10 C-0.33 10 -0.66 10 -1 10 C-1.125 2.25 -1.125 2.25 0 0 Z " fill="#CC2424" transform="translate(184,379)"/>
<path d="M0 0 C0.33 0 0.66 0 1 0 C0.67 3.3 0.34 6.6 0 10 C-0.33 10 -0.66 10 -1 10 C-0.67 6.7 -0.34 3.4 0 0 Z " fill="#B0302C" transform="translate(423,333)"/>
<path d="M0 0 C0.33 0 0.66 0 1 0 C0.67 3.3 0.34 6.6 0 10 C-0.33 10 -0.66 10 -1 10 C-0.67 6.7 -0.34 3.4 0 0 Z " fill="#AC2F2B" transform="translate(455,329)"/>
<path d="M0 0 C0.33 0 0.66 0 1 0 C0.67 3.3 0.34 6.6 0 10 C-0.33 10 -0.66 10 -1 10 C-0.67 6.7 -0.34 3.4 0 0 Z " fill="#B32B2B" transform="translate(459,306)"/>
<path d="M0 0 C0.33 0 0.66 0 1 0 C0.67 3.3 0.34 6.6 0 10 C-0.33 10 -0.66 10 -1 10 C-0.67 6.7 -0.34 3.4 0 0 Z " fill="#CA2B2B" transform="translate(430,290)"/>
<path d="M0 0 C0.33 0 0.66 0 1 0 C0.67 3.3 0.34 6.6 0 10 C-0.33 10 -0.66 10 -1 10 C-0.67 6.7 -0.34 3.4 0 0 Z " fill="#93342D" transform="translate(463,282)"/>
<path d="M0 0 C0.33 0 0.66 0 1 0 C0.67 3.3 0.34 6.6 0 10 C-0.33 10 -0.66 10 -1 10 C-0.67 6.7 -0.34 3.4 0 0 Z " fill="#B23B20" transform="translate(466,264)"/>
<path d="M0 0 C0.33 0 0.66 0 1 0 C0.67 3.3 0.34 6.6 0 10 C-0.33 10 -0.66 10 -1 10 C-0.67 6.7 -0.34 3.4 0 0 Z " fill="#BB2822" transform="translate(470,241)"/>
<path d="M0 0 C2.08954032 4.17908064 2.16552619 4.80410573 1 9 C0.67 9 0.34 9 0 9 C0 6.03 0 3.06 0 0 Z " fill="#881B18" transform="translate(358,451)"/>
<path d="M0 0 C0.66 0.66 1.32 1.32 2 2 C1.625 4.625 1.625 4.625 1 7 C0.31292445 4.50935112 0 2.62113708 0 0 Z " fill="#850F0F" transform="translate(147,269)"/>
<path d="M0 0 C0.33 0 0.66 0 1 0 C0.67 2.97 0.34 5.94 0 9 C-0.33 9 -0.66 9 -1 9 C-0.67 6.03 -0.34 3.06 0 0 Z " fill="#A63124" transform="translate(474,219)"/>
<path d="M0 0 C0.33 0 0.66 0 1 0 C1 3.3 1 6.6 1 10 C0.67 10 0.34 10 0 10 C0 6.7 0 3.4 0 0 Z " fill="#C3371D" transform="translate(477,196)"/>
<path d="M0 0 C1.5625 1.25 1.5625 1.25 3 3 C2.6875 5.1875 2.6875 5.1875 2 7 C1.34 4.69 0.68 2.38 0 0 Z " fill="#B90F0F" transform="translate(443,400)"/>
<path d="M0 0 C0.33 0 0.66 0 1 0 C1 1.65 1 3.3 1 5 C0.01 4.67 -0.98 4.34 -2 4 C-1.34 2.68 -0.68 1.36 0 0 Z " fill="#AD0700" transform="translate(431,285)"/>
<path d="M0 0 C0.99 0.495 0.99 0.495 2 1 C2 2.98 2 4.96 2 7 C0.5393715 4.35261084 0 3.10551666 0 0 Z " fill="#6A1010" transform="translate(177,255)"/>
<path d="M0 0 C0.33 0 0.66 0 1 0 C1 2.64 1 5.28 1 8 C0.67 8 0.34 8 0 8 C0 5.36 0 2.72 0 0 Z " fill="#DC3C3C" transform="translate(420,351)"/>
<path d="M0 0 C0.33 0 0.66 0 1 0 C1 2.64 1 5.28 1 8 C0.67 8 0.34 8 0 8 C0 5.36 0 2.72 0 0 Z " fill="#9F0000" transform="translate(424,325)"/>
<path d="M0 0 C0.33 0 0.66 0 1 0 C1 2.64 1 5.28 1 8 C0.67 8 0.34 8 0 8 C0 5.36 0 2.72 0 0 Z " fill="#AF0000" transform="translate(285,316)"/>
<path d="M0 0 C0.99 1.485 0.99 1.485 2 3 C1.67 3.99 1.34 4.98 1 6 C0.67 4.02 0.34 2.04 0 0 Z " fill="#AB1313" transform="translate(186,464)"/>
<path d="M0 0 C0.66 0 1.32 0 2 0 C1.67 1.65 1.34 3.3 1 5 C0 1.125 0 1.125 0 0 Z " fill="#B71313" transform="translate(186,441)"/>
<path d="M0 0 C0.99 0.33 1.98 0.66 3 1 C2.01 1.99 1.02 2.98 0 4 C0 2.68 0 1.36 0 0 Z " fill="#760000" transform="translate(193,429)"/>
<path d="M0 0 C0.66 0.66 1.32 1.32 2 2 C1.01 2.99 0.02 3.98 -1 5 C-0.67 3.35 -0.34 1.7 0 0 Z " fill="#9A0000" transform="translate(161,412)"/>
<path d="M0 0 C0.33 0 0.66 0 1 0 C1 2.31 1 4.62 1 7 C0.67 7 0.34 7 0 7 C0 4.69 0 2.38 0 0 Z " fill="#910000" transform="translate(453,340)"/>
<path d="M0 0 C0.99 1.485 0.99 1.485 2 3 C1.67 3.99 1.34 4.98 1 6 C0.67 4.02 0.34 2.04 0 0 Z " fill="#BE2525" transform="translate(162,318)"/>
<path d="M0 0 C0.33 0 0.66 0 1 0 C1 2.31 1 4.62 1 7 C0.67 7 0.34 7 0 7 C0 4.69 0 2.38 0 0 Z " fill="#DA0000" transform="translate(464,275)"/>
<path d="M0 0 C0.33 0 0.66 0 1 0 C1 2.31 1 4.62 1 7 C0.67 7 0.34 7 0 7 C0 4.69 0 2.38 0 0 Z " fill="#B60000" transform="translate(203,261)"/>
<path d="M0 0 C0.33 0 0.66 0 1 0 C1 2.31 1 4.62 1 7 C0.67 7 0.34 7 0 7 C0 4.69 0 2.38 0 0 Z " fill="#DA0000" transform="translate(471,234)"/>
<path d="M0 0 C1.485 0.99 1.485 0.99 3 2 C2.67 2.66 2.34 3.32 2 4 C1.34 2.68 0.68 1.36 0 0 Z " fill="#B8552A" transform="translate(193,478)"/>
<path d="M0 0 C0.33 0 0.66 0 1 0 C1 1.98 1 3.96 1 6 C0.67 6 0.34 6 0 6 C0 4.02 0 2.04 0 0 Z " fill="#A90000" transform="translate(403,458)"/>
<path d="M0 0 C0.33 0 0.66 0 1 0 C1 1.98 1 3.96 1 6 C0.67 6 0.34 6 0 6 C0 4.02 0 2.04 0 0 Z " fill="#A90000" transform="translate(403,446)"/>
<path d="M0 0 C0.33 0 0.66 0 1 0 C1 1.98 1 3.96 1 6 C0.67 6 0.34 6 0 6 C0 4.02 0 2.04 0 0 Z " fill="#D40000" transform="translate(446,407)"/>
<path d="M0 0 C0.66 0.66 1.32 1.32 2 2 C1.67 2.99 1.34 3.98 1 5 C0.67 3.35 0.34 1.7 0 0 Z " fill="#9B2A15" transform="translate(169,342)"/>
<path d="M0 0 C0.33 0 0.66 0 1 0 C1 1.98 1 3.96 1 6 C0.67 6 0.34 6 0 6 C0 4.02 0 2.04 0 0 Z " fill="#BF0000" transform="translate(457,316)"/>
<path d="M0 0 C0.99 1.32 1.98 2.64 3 4 C2.01 3.67 1.02 3.34 0 3 C0 2.01 0 1.02 0 0 Z " fill="#B83131" transform="translate(372,306)"/>
<path d="M0 0 C0.33 0 0.66 0 1 0 C1 1.98 1 3.96 1 6 C0.67 6 0.34 6 0 6 C0 4.02 0 2.04 0 0 Z " fill="#940000" transform="translate(428,301)"/>
<path d="M0 0 C0.66 0.66 1.32 1.32 2 2 C1.67 2.99 1.34 3.98 1 5 C0.67 3.35 0.34 1.7 0 0 Z " fill="#BF2121" transform="translate(190,300)"/>
<path d="M0 0 C0.66 0.66 1.32 1.32 2 2 C1.67 2.99 1.34 3.98 1 5 C0.67 3.35 0.34 1.7 0 0 Z " fill="#D83434" transform="translate(172,239)"/>
<path d="M0 0 C0.66 0.66 1.32 1.32 2 2 C1.67 2.99 1.34 3.98 1 5 C0.67 3.35 0.34 1.7 0 0 Z " fill="#D42A2A" transform="translate(122,186)"/>
<path d="M0 0 C0.66 0.66 1.32 1.32 2 2 C1.67 2.99 1.34 3.98 1 5 C0.67 3.35 0.34 1.7 0 0 Z " fill="#AA2A2A" transform="translate(148,158)"/>
<path d="M0 0 C0.33 0 0.66 0 1 0 C1 1.65 1 3.3 1 5 C0.67 5 0.34 5 0 5 C0 3.35 0 1.7 0 0 Z " fill="#AA0000" transform="translate(375,453)"/>
<path d="M0 0 C0.33 0.99 0.66 1.98 1 3 C0.01 3.495 0.01 3.495 -1 4 C-0.67 2.68 -0.34 1.36 0 0 Z " fill="#AA1D1D" transform="translate(445,414)"/>
<path d="M0 0 C0.33 0 0.66 0 1 0 C1 1.65 1 3.3 1 5 C0.67 5 0.34 5 0 5 C0 3.35 0 1.7 0 0 Z " fill="#C62323" transform="translate(451,352)"/>
<path d="M0 0 C0.33 0 0.66 0 1 0 C1 1.65 1 3.3 1 5 C0.67 5 0.34 5 0 5 C0 3.35 0 1.7 0 0 Z " fill="#BA5050" transform="translate(452,347)"/>
<path d="M0 0 C0.33 0 0.66 0 1 0 C1 1.65 1 3.3 1 5 C0.67 5 0.34 5 0 5 C0 3.35 0 1.7 0 0 Z " fill="#7F0000" transform="translate(421,343)"/>
<path d="M0 0 C0.99 0.99 1.98 1.98 3 3 C2.01 2.67 1.02 2.34 0 2 C0 1.34 0 0.68 0 0 Z " fill="#E51919" transform="translate(390,330)"/>
<path d="M0 0 C0.33 0 0.66 0 1 0 C1 1.65 1 3.3 1 5 C0.67 5 0.34 5 0 5 C0 3.35 0 1.7 0 0 Z " fill="#C32A2A" transform="translate(456,324)"/>
<path d="M0 0 C0.33 0 0.66 0 1 0 C1 1.65 1 3.3 1 5 C0.67 5 0.34 5 0 5 C0 3.35 0 1.7 0 0 Z " fill="#C32A19" transform="translate(425,319)"/>
<path d="M0 0 C0.33 0 0.66 0 1 0 C1 1.65 1 3.3 1 5 C0.67 5 0.34 5 0 5 C0 3.35 0 1.7 0 0 Z " fill="#CC0000" transform="translate(196,319)"/>
<path d="M0 0 C0.33 0 0.66 0 1 0 C1 1.65 1 3.3 1 5 C0.67 5 0.34 5 0 5 C0 3.35 0 1.7 0 0 Z " fill="#D76023" transform="translate(426,314)"/>
<path d="M0 0 C0.33 0 0.66 0 1 0 C1 1.65 1 3.3 1 5 C0.67 5 0.34 5 0 5 C0 3.35 0 1.7 0 0 Z " fill="#A83030" transform="translate(427,309)"/>
<path d="M0 0 C0.33 0 0.66 0 1 0 C1 1.65 1 3.3 1 5 C0.67 5 0.34 5 0 5 C0 3.35 0 1.7 0 0 Z " fill="#980000" transform="translate(460,301)"/>
<path d="M0 0 C0.33 0 0.66 0 1 0 C1 1.65 1 3.3 1 5 C0.67 5 0.34 5 0 5 C0 3.35 0 1.7 0 0 Z " fill="#C32A1D" transform="translate(461,292)"/>
<path d="M0 0 C1.65 0 3.3 0 5 0 C5 0.33 5 0.66 5 1 C3.35 1 1.7 1 0 1 C0 0.67 0 0.34 0 0 Z " fill="#A10000" transform="translate(264,275)"/>
<path d="M0 0 C0.33 0 0.66 0 1 0 C1 1.65 1 3.3 1 5 C0.67 5 0.34 5 0 5 C0 3.35 0 1.7 0 0 Z " fill="#CB1D1D" transform="translate(204,268)"/>
<path d="M0 0 C0.33 0 0.66 0 1 0 C1 1.65 1 3.3 1 5 C0.67 5 0.34 5 0 5 C0 3.35 0 1.7 0 0 Z " fill="#980000" transform="translate(467,259)"/>
<path d="M0 0 C0.33 0 0.66 0 1 0 C1 1.65 1 3.3 1 5 C0.67 5 0.34 5 0 5 C0 3.35 0 1.7 0 0 Z " fill="#D83232" transform="translate(204,256)"/>
<path d="M0 0 C0.33 0 0.66 0 1 0 C1 1.65 1 3.3 1 5 C0.67 5 0.34 5 0 5 C0 3.35 0 1.7 0 0 Z " fill="#833711" transform="translate(468,251)"/>
<path d="M0 0 C0.33 0 0.66 0 1 0 C1 1.65 1 3.3 1 5 C0.67 5 0.34 5 0 5 C0 3.35 0 1.7 0 0 Z " fill="#C62727" transform="translate(472,228)"/>
<path d="M0 0 C0.33 0 0.66 0 1 0 C1 1.65 1 3.3 1 5 C0.67 5 0.34 5 0 5 C0 3.35 0 1.7 0 0 Z " fill="#C30000" transform="translate(475,210)"/>
<path d="M0 0 C1.65 0 3.3 0 5 0 C5 0.33 5 0.66 5 1 C3.35 1 1.7 1 0 1 C0 0.67 0 0.34 0 0 Z " fill="#FF0000" transform="translate(116,129)"/>
<path d="M0 0 C0.99 0.495 0.99 0.495 2 1 C1.34 1.66 0.68 2.32 0 3 C0 2.01 0 1.02 0 0 Z " fill="#AA0000" transform="translate(206,489)"/>
<path d="M0 0 C0.99 0.495 0.99 0.495 2 1 C1.67 1.66 1.34 2.32 1 3 C0.67 2.01 0.34 1.02 0 0 Z " fill="#950F00" transform="translate(190,474)"/>
<path d="M0 0 C1 4 1 4 1 4 Z " fill="#A90000" transform="translate(213,454)"/>
<path d="M0 0 C1 4 1 4 1 4 Z " fill="#B72C2C" transform="translate(258,446)"/>
<path d="M0 0 C1 4 1 4 1 4 Z " fill="#5F0000" transform="translate(257,442)"/>
<path d="M0 0 C0.99 0.495 0.99 0.495 2 1 C1.67 1.66 1.34 2.32 1 3 C0.67 2.01 0.34 1.02 0 0 Z " fill="#9D220C" transform="translate(255,438)"/>
<path d="M0 0 C0 3 0 3 0 3 Z " fill="#DD2222" transform="translate(334,437)"/>
<path d="M0 0 C0.99 0.495 0.99 0.495 2 1 C1.67 1.66 1.34 2.32 1 3 C0.67 2.01 0.34 1.02 0 0 Z " fill="#BF1F1F" transform="translate(398,435)"/>
<path d="M0 0 C0 3 0 3 0 3 Z " fill="#C90000" transform="translate(337,432)"/>
<path d="M0 0 C0.99 0.495 0.99 0.495 2 1 C1.67 1.66 1.34 2.32 1 3 C0.67 2.01 0.34 1.02 0 0 Z " fill="#9A2525" transform="translate(154,403)"/>
<path d="M0 0 C4 1 4 1 4 1 Z " fill="#6A1515" transform="translate(433,394)"/>
<path d="M0 0 C0 3 0 3 0 3 Z " fill="#D00C0C" transform="translate(187,374)"/>
<path d="M0 0 C0 3 0 3 0 3 Z " fill="#9F1F1F" transform="translate(158,362)"/>
<path d="M0 0 C1 4 1 4 1 4 Z " fill="#DF0000" transform="translate(167,335)"/>
<path d="M0 0 C1 4 1 4 1 4 Z " fill="#FF0000" transform="translate(314,332)"/>
<path d="M0 0 C1 4 1 4 1 4 Z " fill="#CD1C0F" transform="translate(315,328)"/>
<path d="M0 0 C0.99 0.495 0.99 0.495 2 1 C1.67 1.66 1.34 2.32 1 3 C0.67 2.01 0.34 1.02 0 0 Z " fill="#C50C00" transform="translate(383,321)"/>
<path d="M0 0 C0.99 0.495 0.99 0.495 2 1 C1.67 1.66 1.34 2.32 1 3 C0.67 2.01 0.34 1.02 0 0 Z " fill="#920000" transform="translate(380,317)"/>
<path d="M0 0 C1 4 1 4 1 4 Z " fill="#DF0000" transform="translate(160,311)"/>
<path d="M0 0 C0 3 0 3 0 3 Z " fill="#C93F3F" transform="translate(416,305)"/>
<path d="M0 0 C1 4 1 4 1 4 Z " fill="#DF0000" transform="translate(314,303)"/>
<path d="M0 0 C0.99 0.495 0.99 0.495 2 1 C1.67 1.66 1.34 2.32 1 3 C0.67 2.01 0.34 1.02 0 0 Z " fill="#CF0000" transform="translate(369,302)"/>
<path d="M0 0 C0.99 1.485 0.99 1.485 2 3 C1.34 3 0.68 3 0 3 C0 2.01 0 1.02 0 0 Z " fill="#9F0000" transform="translate(367,299)"/>
<path d="M0 0 C4 1 4 1 4 1 Z " fill="#AA0000" transform="translate(237,301)"/>
<path d="M0 0 C1 4 1 4 1 4 Z " fill="#DF0000" transform="translate(189,295)"/>
<path d="M0 0 C0.99 0.495 0.99 0.495 2 1 C1.67 1.66 1.34 2.32 1 3 C0.67 2.01 0.34 1.02 0 0 Z " fill="#950000" transform="translate(308,293)"/>
<path d="M0 0 C0 3 0 3 0 3 Z " fill="#7B2C2C" transform="translate(154,292)"/>
<path d="M0 0 C4 1 4 1 4 1 Z " fill="#FF0000" transform="translate(285,279)"/>
<path d="M0 0 C4 1 4 1 4 1 Z " fill="#850C0C" transform="translate(281,278)"/>
<path d="M0 0 C1 4 1 4 1 4 Z " fill="#BF0000" transform="translate(182,272)"/>
<path d="M0 0 C4 1 4 1 4 1 Z " fill="#BF0000" transform="translate(250,272)"/>
<path d="M0 0 C1 4 1 4 1 4 Z " fill="#DF0000" transform="translate(142,251)"/>
<path d="M0 0 C0 3 0 3 0 3 Z " fill="#D22C2C" transform="translate(209,244)"/>
<path d="M0 0 C0 3 0 3 0 3 Z " fill="#EF0000" transform="translate(424,243)"/>
<path d="M0 0 C0 3 0 3 0 3 Z " fill="#D41F1F" transform="translate(426,240)"/>
<path d="M0 0 C0.99 0.495 0.99 0.495 2 1 C1.34 1.66 0.68 2.32 0 3 C0 2.01 0 1.02 0 0 Z " fill="#941500" transform="translate(428,236)"/>
<path d="M0 0 C1 4 1 4 1 4 Z " fill="#BF0000" transform="translate(171,234)"/>
<path d="M0 0 C1 4 1 4 1 4 Z " fill="#FF0000" transform="translate(135,228)"/>
<path d="M0 0 C1 4 1 4 1 4 Z " fill="#C05757" transform="translate(476,206)"/>
<path d="M0 0 C1 4 1 4 1 4 Z " fill="#7F0000" transform="translate(124,191)"/>
<path d="M0 0 C0.99 0.495 0.99 0.495 2 1 C1.67 1.66 1.34 2.32 1 3 C0.67 2.01 0.34 1.02 0 0 Z " fill="#9A0000" transform="translate(140,143)"/>
<path d="M0 0 C3 1 3 1 3 1 Z " fill="#FF0000" transform="translate(377,490)"/>
<path d="M0 0 C3 1 3 1 3 1 Z " fill="#D40000" transform="translate(208,490)"/>
<path d="M0 0 C0.66 0.66 1.32 1.32 2 2 C1.34 2 0.68 2 0 2 C0 1.34 0 0.68 0 0 Z " fill="#381C00" transform="translate(338,478)"/>
<path d="" fill="#D40000" transform="translate(0,0)"/>
<path d="" fill="#A23F15" transform="translate(0,0)"/>
<path d="" fill="#632A00" transform="translate(0,0)"/>
<path d="M0 0 C0.66 0.66 1.32 1.32 2 2 C1.34 2 0.68 2 0 2 C0 1.34 0 0.68 0 0 Z " fill="#B81C1C" transform="translate(360,461)"/>
<path d="" fill="#2A1515" transform="translate(0,0)"/>
<path d="" fill="#AA0000" transform="translate(0,0)"/>
<path d="M0 0 C0.66 0.66 1.32 1.32 2 2 C1.34 2 0.68 2 0 2 C0 1.34 0 0.68 0 0 Z " fill="#861C1C" transform="translate(372,448)"/>
<path d="" fill="#E22A00" transform="translate(0,0)"/>
<path d="" fill="#CD3F2A" transform="translate(0,0)"/>
<path d="M0 0 C0.66 0.66 1.32 1.32 2 2 C1.34 2 0.68 2 0 2 C0 1.34 0 0.68 0 0 Z " fill="#B20000" transform="translate(163,414)"/>
<path d="M0 0 C0.66 0.66 1.32 1.32 2 2 C1.34 2 0.68 2 0 2 C0 1.34 0 0.68 0 0 Z " fill="#6A0000" transform="translate(159,410)"/>
<path d="" fill="#FF0000" transform="translate(0,0)"/>
<path d="M0 0 C0.99 0.495 0.99 0.495 2 1 C1.01 1.495 1.01 1.495 0 2 C0 1.34 0 0.68 0 0 Z " fill="#EE0000" transform="translate(164,355)"/>
<path d="" fill="#943F2A" transform="translate(0,0)"/>
<path d="M0 0 C0.33 0.66 0.66 1.32 1 2 C0.34 1.67 -0.32 1.34 -1 1 C-0.67 0.67 -0.34 0.34 0 0 Z " fill="#AA0000" transform="translate(397,330)"/>
<path d="" fill="#D40000" transform="translate(0,0)"/>
<path d="" fill="#A73B3B" transform="translate(0,0)"/>
<path d="" fill="#E93F3F" transform="translate(0,0)"/>
<path d="" fill="#A2311C" transform="translate(0,0)"/>
<path d="" fill="#CC3B3B" transform="translate(0,0)"/>
<path d="" fill="#E21C1C" transform="translate(0,0)"/>
<path d="" fill="#D86666" transform="translate(0,0)"/>
<path d="" fill="#D40000" transform="translate(0,0)"/>
<path d="" fill="#A72D2D" transform="translate(0,0)"/>
<path d="M0 0 C3 1 3 1 3 1 Z " fill="#9B1C1C" transform="translate(233,300)"/>
<path d="" fill="#710000" transform="translate(0,0)"/>
<path d="" fill="#AE3B3B" transform="translate(0,0)"/>
<path d="" fill="#BF3F2A" transform="translate(0,0)"/>
<path d="" fill="#AE3B3B" transform="translate(0,0)"/>
<path d="" fill="#D40000" transform="translate(0,0)"/>
<path d="" fill="#E91C1C" transform="translate(0,0)"/>
<path d="" fill="#B23B3B" transform="translate(0,0)"/>
<path d="" fill="#B80000" transform="translate(0,0)"/>
<path d="" fill="#C60000" transform="translate(0,0)"/>
<path d="" fill="#D13B3B" transform="translate(0,0)"/>
<path d="M0 0 C3 1 3 1 3 1 Z " fill="#C01111" transform="translate(244,271)"/>
<path d="" fill="#B87100" transform="translate(0,0)"/>
<path d="" fill="#D40000" transform="translate(0,0)"/>
<path d="" fill="#DD1111" transform="translate(0,0)"/>
<path d="" fill="#A23F3F" transform="translate(0,0)"/>
<path d="" fill="#BF2A2A" transform="translate(0,0)"/>
<path d="" fill="#DD3B3B" transform="translate(0,0)"/>
<path d="" fill="#E20000" transform="translate(0,0)"/>
<path d="" fill="#E22A00" transform="translate(0,0)"/>
<path d="" fill="#C33B3B" transform="translate(0,0)"/>
<path d="" fill="#A72D2D" transform="translate(0,0)"/>
<path d="" fill="#E22A2A" transform="translate(0,0)"/>
<path d="M0 0 C0.99 0.495 0.99 0.495 2 1 C1.01 1.495 1.01 1.495 0 2 C0 1.34 0 0.68 0 0 Z " fill="#7F0000" transform="translate(363,243)"/>
<path d="" fill="#943F2A" transform="translate(0,0)"/>
<path d="M0 0 C0.99 0.495 0.99 0.495 2 1 C1.01 1.495 1.01 1.495 0 2 C0 1.34 0 0.68 0 0 Z " fill="#FF0000" transform="translate(214,237)"/>
<path d="" fill="#CC6611" transform="translate(0,0)"/>
<path d="" fill="#BF3F3F" transform="translate(0,0)"/>
<path d="" fill="#E91C1C" transform="translate(0,0)"/>
<path d="" fill="#D82626" transform="translate(0,0)"/>
<path d="" fill="#992D2D" transform="translate(0,0)"/>
<path d="M0 0 C0.66 0 1.32 0 2 0 C1.67 0.66 1.34 1.32 1 2 C0.67 1.34 0.34 0.68 0 0 Z " fill="#991111" transform="translate(437,223)"/>
<path d="" fill="#D46A15" transform="translate(0,0)"/>
<path d="" fill="#AA0000" transform="translate(0,0)"/>
<path d="" fill="#B85500" transform="translate(0,0)"/>
<path d="" fill="#630000" transform="translate(0,0)"/>
<path d="" fill="#A23F15" transform="translate(0,0)"/>
<path d="" fill="#C61C1C" transform="translate(0,0)"/>
<path d="" fill="#540000" transform="translate(0,0)"/>
<path d="" fill="#D86A15" transform="translate(0,0)"/>
<path d="" fill="#E91C1C" transform="translate(0,0)"/>
<path d="" fill="#D43838" transform="translate(0,0)"/>
<path d="" fill="#D40000" transform="translate(0,0)"/>
<path d="" fill="#CD3F3F" transform="translate(0,0)"/>
<path d="" fill="#DD6611" transform="translate(0,0)"/>
<path d="" fill="#630000" transform="translate(0,0)"/>
<path d="" fill="#D42A00" transform="translate(0,0)"/>
<path d="" fill="#BF0000" transform="translate(0,0)"/>
<path d="" fill="#D40000" transform="translate(0,0)"/>
<path d="" fill="#FF0000" transform="translate(0,0)"/>
<path d="" fill="#DF0000" transform="translate(0,0)"/>
<path d="" fill="#3F0000" transform="translate(0,0)"/>
<path d="" fill="#E57F7F" transform="translate(0,0)"/>
<path d="" fill="#B41F1F" transform="translate(0,0)"/>
<path d="" fill="#D40000" transform="translate(0,0)"/>
<path d="" fill="#FF3F3F" transform="translate(0,0)"/>
<path d="" fill="#FF3F00" transform="translate(0,0)"/>
<path d="" fill="#D45454" transform="translate(0,0)"/>
<path d="" fill="#BF3F3F" transform="translate(0,0)"/>
<path d="" fill="#AC1F1F" transform="translate(0,0)"/>
<path d="" fill="#D40000" transform="translate(0,0)"/>
<path d="" fill="#D40000" transform="translate(0,0)"/>
<path d="" fill="#FF2A2A" transform="translate(0,0)"/>
<path d="" fill="#DF0000" transform="translate(0,0)"/>
<path d="" fill="#FF0000" transform="translate(0,0)"/>
<path d="" fill="#D40000" transform="translate(0,0)"/>
<path d="" fill="#550000" transform="translate(0,0)"/>
<path d="M0 0 C2 1 2 1 2 1 Z " fill="#D42A00" transform="translate(435,425)"/>
<path d="M0 0 C2 1 2 1 2 1 Z " fill="#BF0000" transform="translate(173,422)"/>
<path d="" fill="#FF0000" transform="translate(0,0)"/>
<path d="" fill="#FF0000" transform="translate(0,0)"/>
<path d="" fill="#A14444" transform="translate(0,0)"/>
<path d="" fill="#E53F3F" transform="translate(0,0)"/>
<path d="" fill="#FF0000" transform="translate(0,0)"/>
<path d="" fill="#E55959" transform="translate(0,0)"/>
<path d="" fill="#DF1F00" transform="translate(0,0)"/>
<path d="" fill="#000000" transform="translate(0,0)"/>
<path d="" fill="#940000" transform="translate(0,0)"/>
<path d="" fill="#D42A00" transform="translate(0,0)"/>
<path d="" fill="#D42A00" transform="translate(0,0)"/>
<path d="" fill="#FF0000" transform="translate(0,0)"/>
<path d="" fill="#FF0000" transform="translate(0,0)"/>
<path d="" fill="#AA3F2A" transform="translate(0,0)"/>
<path d="" fill="#D43F00" transform="translate(0,0)"/>
<path d="M0 0 C2 1 2 1 2 1 Z " fill="#7F0000" transform="translate(393,333)"/>
<path d="" fill="#E50000" transform="translate(0,0)"/>
<path d="" fill="#E51919" transform="translate(0,0)"/>
<path d="" fill="#BF3F3F" transform="translate(0,0)"/>
<path d="" fill="#D4543F" transform="translate(0,0)"/>
<path d="" fill="#943F00" transform="translate(0,0)"/>
<path d="" fill="#D43F00" transform="translate(0,0)"/>
<path d="" fill="#BF0000" transform="translate(0,0)"/>
<path d="" fill="#FF3F00" transform="translate(0,0)"/>
<path d="" fill="#D40000" transform="translate(0,0)"/>
<path d="" fill="#550000" transform="translate(0,0)"/>
<path d="M0 0 C2 1 2 1 2 1 Z " fill="#B42A2A" transform="translate(228,298)"/>
<path d="" fill="#BF0000" transform="translate(0,0)"/>
<path d="" fill="#FF0000" transform="translate(0,0)"/>
<path d="" fill="#FF3F3F" transform="translate(0,0)"/>
<path d="" fill="#BB442A" transform="translate(0,0)"/>
<path d="" fill="#FF0000" transform="translate(0,0)"/>
<path d="" fill="#942A2A" transform="translate(0,0)"/>
<path d="" fill="#D40000" transform="translate(0,0)"/>
<path d="M0 0 C2 1 2 1 2 1 Z " fill="#E52A2A" transform="translate(291,281)"/>
<path d="M0 0 C2 1 2 1 2 1 Z " fill="#AA552A" transform="translate(289,280)"/>
<path d="" fill="#940000" transform="translate(0,0)"/>
<path d="" fill="#BF0000" transform="translate(0,0)"/>
<path d="" fill="#BF0000" transform="translate(0,0)"/>
<path d="" fill="#7F0000" transform="translate(0,0)"/>
<path d="" fill="#BB4444" transform="translate(0,0)"/>
<path d="" fill="#D43F3F" transform="translate(0,0)"/>
<path d="" fill="#BB2A2A" transform="translate(0,0)"/>
<path d="" fill="#FF0000" transform="translate(0,0)"/>
<path d="" fill="#550000" transform="translate(0,0)"/>
<path d="" fill="#DF0000" transform="translate(0,0)"/>
<path d="" fill="#943F3F" transform="translate(0,0)"/>
<path d="" fill="#FF0000" transform="translate(0,0)"/>
<path d="" fill="#BF0000" transform="translate(0,0)"/>
<path d="" fill="#3F0000" transform="translate(0,0)"/>
<path d="" fill="#FF0000" transform="translate(0,0)"/>
<path d="" fill="#E50000" transform="translate(0,0)"/>
<path d="" fill="#5F1F00" transform="translate(0,0)"/>
<path d="" fill="#BF1F1F" transform="translate(0,0)"/>
<path d="" fill="#DF3F3F" transform="translate(0,0)"/>
<path d="" fill="#B43434" transform="translate(0,0)"/>
<path d="" fill="#DF3F3F" transform="translate(0,0)"/>
<path d="" fill="#FF0000" transform="translate(0,0)"/>
<path d="" fill="#BB4444" transform="translate(0,0)"/>
<path d="" fill="#DF3F3F" transform="translate(0,0)"/>
<path d="" fill="#BF0000" transform="translate(0,0)"/>
<path d="" fill="#9A5112" transform="translate(0,0)"/>
<path d="" fill="#FF0000" transform="translate(0,0)"/>
<path d="" fill="#A12A2A" transform="translate(0,0)"/>
<path d="" fill="#FF0000" transform="translate(0,0)"/>
<path d="" fill="#DF1F1F" transform="translate(0,0)"/>
<path d="" fill="#943F3F" transform="translate(0,0)"/>
<path d="" fill="#7F2A2A" transform="translate(0,0)"/>
<path d="M0 0 C2 1 2 1 2 1 Z " fill="#D42A2A" transform="translate(121,130)"/>
<path d="" fill="#000000" transform="translate(0,0)"/>
<path d="" fill="#BF0000" transform="translate(0,0)"/>
<path d="" fill="#AA5555" transform="translate(0,0)"/>
<path d="" fill="#000000" transform="translate(0,0)"/>
<path d="" fill="#AA5500" transform="translate(0,0)"/>
<path d="" fill="#FF0000" transform="translate(0,0)"/>
<path d="" fill="#CC0000" transform="translate(0,0)"/>
<path d="" fill="#7F7F7F" transform="translate(0,0)"/>
<path d="" fill="#CC3300" transform="translate(0,0)"/>
<path d="" fill="#AA5500" transform="translate(0,0)"/>
<path d="" fill="#BF3F3F" transform="translate(0,0)"/>
<path d="" fill="#BF3F00" transform="translate(0,0)"/>
<path d="" fill="#000000" transform="translate(0,0)"/>
<path d="" fill="#BF3F00" transform="translate(0,0)"/>
<path d="" fill="#AA0000" transform="translate(0,0)"/>
<path d="" fill="#FF0000" transform="translate(0,0)"/>
<path d="" fill="#AA0000" transform="translate(0,0)"/>
<path d="" fill="#AA0000" transform="translate(0,0)"/>
<path d="" fill="#BF3F3F" transform="translate(0,0)"/>
<path d="" fill="#AA5555" transform="translate(0,0)"/>
<path d="" fill="#7F0000" transform="translate(0,0)"/>
<path d="" fill="#FF7F7F" transform="translate(0,0)"/>
<path d="" fill="#7F3F3F" transform="translate(0,0)"/>
<path d="" fill="#FF3F00" transform="translate(0,0)"/>
<path d="" fill="#000000" transform="translate(0,0)"/>
<path d="" fill="#FF5555" transform="translate(0,0)"/>
<path d="" fill="#FF5555" transform="translate(0,0)"/>
<path d="" fill="#FF3F3F" transform="translate(0,0)"/>
<path d="" fill="#BF3F3F" transform="translate(0,0)"/>
<path d="" fill="#FF5555" transform="translate(0,0)"/>
<path d="" fill="#7F0000" transform="translate(0,0)"/>
<path d="" fill="#BF3F3F" transform="translate(0,0)"/>
<path d="" fill="#FF7F7F" transform="translate(0,0)"/>
<path d="" fill="#7F0000" transform="translate(0,0)"/>
<path d="" fill="#FF7F00" transform="translate(0,0)"/>
<path d="" fill="#7F0000" transform="translate(0,0)"/>
<path d="" fill="#AA5555" transform="translate(0,0)"/>
<path d="" fill="#FFFFFF" transform="translate(0,0)"/>
<path d="" fill="#AA5500" transform="translate(0,0)"/>
<path d="" fill="#AA5555" transform="translate(0,0)"/>
<path d="" fill="#AA0000" transform="translate(0,0)"/>
<path d="" fill="#FF5555" transform="translate(0,0)"/>
<path d="" fill="#AA0000" transform="translate(0,0)"/>
<path d="" fill="#FF7F00" transform="translate(0,0)"/>
<path d="" fill="#AA0000" transform="translate(0,0)"/>
<path d="" fill="#FF3F3F" transform="translate(0,0)"/>
<path d="" fill="#BF0000" transform="translate(0,0)"/>
<path d="" fill="#FF0000" transform="translate(0,0)"/>
<path d="" fill="#FF7F00" transform="translate(0,0)"/>
<path d="" fill="#7F0000" transform="translate(0,0)"/>
<path d="" fill="#FF0000" transform="translate(0,0)"/>
<path d="" fill="#BF3F3F" transform="translate(0,0)"/>
<path d="" fill="#7F0000" transform="translate(0,0)"/>
<path d="" fill="#BF0000" transform="translate(0,0)"/>
<path d="" fill="#BF0000" transform="translate(0,0)"/>
<path d="" fill="#000000" transform="translate(0,0)"/>
<path d="" fill="#000000" transform="translate(0,0)"/>
<path d="" fill="#000000" transform="translate(0,0)"/>
<path d="" fill="#000000" transform="translate(0,0)"/>
<path d="" fill="#000000" transform="translate(0,0)"/>
<path d="" fill="#000000" transform="translate(0,0)"/>
<path d="" fill="#000000" transform="translate(0,0)"/>
<path d="" fill="#FF0000" transform="translate(0,0)"/>
<path d="" fill="#AA0000" transform="translate(0,0)"/>
<path d="" fill="#FF5555" transform="translate(0,0)"/>
<path d="" fill="#AA2A00" transform="translate(0,0)"/>
<path d="" fill="#AA5555" transform="translate(0,0)"/>
<path d="" fill="#BF3F3F" transform="translate(0,0)"/>
<path d="" fill="#7F0000" transform="translate(0,0)"/>
<path d="" fill="#AA5555" transform="translate(0,0)"/>
<path d="" fill="#FF0000" transform="translate(0,0)"/>
<path d="" fill="#7F7F00" transform="translate(0,0)"/>
<path d="" fill="#AA0000" transform="translate(0,0)"/>
<path d="" fill="#FF0000" transform="translate(0,0)"/>
<path d="" fill="#7F0000" transform="translate(0,0)"/>
<path d="" fill="#BF3F3F" transform="translate(0,0)"/>
<path d="" fill="#7F0000" transform="translate(0,0)"/>
<path d="" fill="#AA5555" transform="translate(0,0)"/>
<path d="" fill="#CC3333" transform="translate(0,0)"/>
<path d="" fill="#CC0000" transform="translate(0,0)"/>
<path d="" fill="#7F0000" transform="translate(0,0)"/>
<path d="" fill="#BF3F3F" transform="translate(0,0)"/>
<path d="" fill="#993333" transform="translate(0,0)"/>
<path d="" fill="#000000" transform="translate(0,0)"/>
<path d="" fill="#AA5555" transform="translate(0,0)"/>
<path d="" fill="#FF0000" transform="translate(0,0)"/>
<path d="" fill="#7F0000" transform="translate(0,0)"/>
<path d="" fill="#FF5555" transform="translate(0,0)"/>
<path d="" fill="#FF0000" transform="translate(0,0)"/>
<path d="" fill="#CC0000" transform="translate(0,0)"/>
<path d="" fill="#FF5555" transform="translate(0,0)"/>
<path d="" fill="#FF5555" transform="translate(0,0)"/>
<path d="" fill="#FF0000" transform="translate(0,0)"/>
<path d="" fill="#AA0000" transform="translate(0,0)"/>
<path d="" fill="#AA0000" transform="translate(0,0)"/>
<path d="" fill="#FF5555" transform="translate(0,0)"/>
<path d="" fill="#FF0000" transform="translate(0,0)"/>
<path d="" fill="#7F0000" transform="translate(0,0)"/>
<path d="" fill="#FF7F7F" transform="translate(0,0)"/>
<path d="" fill="#FF0000" transform="translate(0,0)"/>
<path d="" fill="#BF0000" transform="translate(0,0)"/>
<path d="" fill="#BF3F3F" transform="translate(0,0)"/>
<path d="" fill="#AA0000" transform="translate(0,0)"/>
<path d="" fill="#7F0000" transform="translate(0,0)"/>
<path d="" fill="#FF5555" transform="translate(0,0)"/>
<path d="" fill="#AA5555" transform="translate(0,0)"/>
<path d="" fill="#BF0000" transform="translate(0,0)"/>
<path d="" fill="#FF0000" transform="translate(0,0)"/>
<path d="" fill="#AA0000" transform="translate(0,0)"/>
<path d="" fill="#CC3300" transform="translate(0,0)"/>
<path d="" fill="#FF0000" transform="translate(0,0)"/>
<path d="" fill="#BF3F3F" transform="translate(0,0)"/>
<path d="" fill="#7F0000" transform="translate(0,0)"/>
<path d="" fill="#7F0000" transform="translate(0,0)"/>
<path d="" fill="#FF0000" transform="translate(0,0)"/>
<path d="" fill="#7F0000" transform="translate(0,0)"/>
<path d="" fill="#7F0000" transform="translate(0,0)"/>
<path d="" fill="#FF0000" transform="translate(0,0)"/>
<path d="" fill="#CC3300" transform="translate(0,0)"/>
<path d="" fill="#7F0000" transform="translate(0,0)"/>
<path d="" fill="#CC3333" transform="translate(0,0)"/>
<path d="" fill="#AA5555" transform="translate(0,0)"/>
<path d="" fill="#AA5555" transform="translate(0,0)"/>
<path d="" fill="#AA5500" transform="translate(0,0)"/>
<path d="" fill="#BF3F3F" transform="translate(0,0)"/>
<path d="" fill="#FF0000" transform="translate(0,0)"/>
<path d="" fill="#AA5500" transform="translate(0,0)"/>
<path d="" fill="#FF0000" transform="translate(0,0)"/>
<path d="" fill="#BF3F3F" transform="translate(0,0)"/>
<path d="" fill="#FF0000" transform="translate(0,0)"/>
<path d="" fill="#FF7F7F" transform="translate(0,0)"/>
<path d="" fill="#FF7F7F" transform="translate(0,0)"/>
<path d="" fill="#7F0000" transform="translate(0,0)"/>
<path d="" fill="#FF0000" transform="translate(0,0)"/>
<path d="" fill="#FF7F7F" transform="translate(0,0)"/>
<path d="" fill="#7F0000" transform="translate(0,0)"/>
<path d="" fill="#AA0000" transform="translate(0,0)"/>
<path d="" fill="#FF0000" transform="translate(0,0)"/>
<path d="" fill="#FF0000" transform="translate(0,0)"/>
<path d="" fill="#FF0000" transform="translate(0,0)"/>
<path d="" fill="#AA5555" transform="translate(0,0)"/>
<path d="" fill="#BF3F3F" transform="translate(0,0)"/>
<path d="" fill="#AA5555" transform="translate(0,0)"/>
<path d="" fill="#AA0000" transform="translate(0,0)"/>
<path d="" fill="#FF0000" transform="translate(0,0)"/>
<path d="" fill="#7F0000" transform="translate(0,0)"/>
<path d="" fill="#BF3F3F" transform="translate(0,0)"/>
<path d="" fill="#BF0000" transform="translate(0,0)"/>
<path d="" fill="#BF3F3F" transform="translate(0,0)"/>
<path d="" fill="#7F0000" transform="translate(0,0)"/>
<path d="" fill="#BF3F00" transform="translate(0,0)"/>
<path d="" fill="#BF3F00" transform="translate(0,0)"/>
<path d="" fill="#BF3F00" transform="translate(0,0)"/>
<path d="" fill="#FF0000" transform="translate(0,0)"/>
<path d="" fill="#CC0000" transform="translate(0,0)"/>
<path d="" fill="#AA0000" transform="translate(0,0)"/>
<path d="" fill="#AA0000" transform="translate(0,0)"/>
<path d="" fill="#7F0000" transform="translate(0,0)"/>
<path d="" fill="#AA5500" transform="translate(0,0)"/>
<path d="" fill="#7F0000" transform="translate(0,0)"/>
<path d="" fill="#AA5555" transform="translate(0,0)"/>
<path d="" fill="#000000" transform="translate(0,0)"/>
<path d="" fill="#BF3F3F" transform="translate(0,0)"/>
<path d="" fill="#FF7F00" transform="translate(0,0)"/>
<path d="" fill="#AA5555" transform="translate(0,0)"/>
<path d="" fill="#CC3333" transform="translate(0,0)"/>
<path d="" fill="#993333" transform="translate(0,0)"/>
<path d="" fill="#BF3F3F" transform="translate(0,0)"/>
<path d="" fill="#AA0000" transform="translate(0,0)"/>
<path d="" fill="#BF0000" transform="translate(0,0)"/>
<path d="" fill="#AA0000" transform="translate(0,0)"/>
<path d="" fill="#993300" transform="translate(0,0)"/>
<path d="" fill="#FF0000" transform="translate(0,0)"/>
<path d="" fill="#FF0000" transform="translate(0,0)"/>
<path d="" fill="#AA0000" transform="translate(0,0)"/>
<path d="" fill="#7F7F00" transform="translate(0,0)"/>
<path d="" fill="#AA5555" transform="translate(0,0)"/>
<path d="" fill="#7F3F3F" transform="translate(0,0)"/>
<path d="" fill="#BF3F3F" transform="translate(0,0)"/>
<path d="" fill="#AA0000" transform="translate(0,0)"/>
<path d="" fill="#993333" transform="translate(0,0)"/>
<path d="" fill="#7F0000" transform="translate(0,0)"/>
<path d="" fill="#FF0000" transform="translate(0,0)"/>
<path d="" fill="#AA5555" transform="translate(0,0)"/>
<path d="" fill="#BF3F3F" transform="translate(0,0)"/>
<path d="" fill="#FF0000" transform="translate(0,0)"/>
<path d="" fill="#FF0000" transform="translate(0,0)"/>
<path d="" fill="#BF3F3F" transform="translate(0,0)"/>
<path d="" fill="#AA5555" transform="translate(0,0)"/>
<path d="" fill="#AA0000" transform="translate(0,0)"/>
<path d="" fill="#AA0000" transform="translate(0,0)"/>
<path d="" fill="#7F0000" transform="translate(0,0)"/>
<path d="" fill="#BF3F00" transform="translate(0,0)"/>
<path d="" fill="#990000" transform="translate(0,0)"/>
<path d="" fill="#FF0000" transform="translate(0,0)"/>
<path d="" fill="#AA5555" transform="translate(0,0)"/>
<path d="" fill="#AA5500" transform="translate(0,0)"/>
<path d="" fill="#FF0000" transform="translate(0,0)"/>
<path d="" fill="#BF3F3F" transform="translate(0,0)"/>
<path d="" fill="#000000" transform="translate(0,0)"/>
<path d="" fill="#000000" transform="translate(0,0)"/>
<path d="" fill="#7F0000" transform="translate(0,0)"/>
<path d="" fill="#BF3F00" transform="translate(0,0)"/>
<path d="" fill="#000000" transform="translate(0,0)"/>
<path d="" fill="#FF0000" transform="translate(0,0)"/>
<path d="" fill="#FF0000" transform="translate(0,0)"/>
<path d="" fill="#AA5500" transform="translate(0,0)"/>
<path d="" fill="#BF3F3F" transform="translate(0,0)"/>
<path d="" fill="#7F0000" transform="translate(0,0)"/>
<path d="" fill="#FF0000" transform="translate(0,0)"/>
<path d="" fill="#BF3F3F" transform="translate(0,0)"/>
<path d="" fill="#AA5555" transform="translate(0,0)"/>
<path d="" fill="#FF0000" transform="translate(0,0)"/>
<path d="" fill="#FF0000" transform="translate(0,0)"/>
<path d="" fill="#000000" transform="translate(0,0)"/>
</svg>
